<svg width="228" height="36" viewBox="0 0 228 36" fill="none" xmlns="http://www.w3.org/2000/svg">
<path d="M23.779 4.71293C16.5677 5.33754 11.9115 0 11.9115 0C11.9115 0 7.25536 5.33754 0.0440004 4.71293C0.0440004 10.0505 -1.37556 27.9937 11.9115 36C25.1986 27.9937 23.779 10.0505 23.779 4.71293Z" fill="url(#paint0_radial)"/>
<path d="M11.9143 28.3901C1.01212 23.0525 1.23925 11.7529 1.35281 6.92636C1.35281 6.64245 1.35281 6.35854 1.35281 6.13141C1.63672 6.13141 1.97742 6.13141 2.26133 6.13141C7.54208 6.13141 11.1762 3.40586 11.9143 2.78125C12.6525 3.40586 16.2866 6.13141 21.5673 6.13141C21.8512 6.13141 22.1351 6.13141 22.4758 6.13141C22.4758 6.35854 22.4758 6.64245 22.4758 6.92636C22.5894 11.7529 22.8165 23.0525 11.9143 28.3901Z" fill="url(#paint1_radial)"/>
<path d="M11.9081 3.06587C12.9302 3.86082 16.3939 6.35925 21.5611 6.35925C21.7883 6.35925 22.0154 6.35925 22.2425 6.35925C22.2425 6.52959 22.2425 6.75672 22.2425 6.98385C22.3561 11.7536 22.5832 22.8829 11.9081 28.1637C1.23306 22.8829 1.46019 11.6968 1.57376 6.92707C1.57376 6.69994 1.57376 6.52959 1.57376 6.30246C1.80089 6.30246 2.02802 6.30246 2.25515 6.30246C7.42234 6.35925 10.8861 3.86082 11.9081 3.06587ZM11.9081 2.49805C11.9081 2.49805 8.16051 5.96177 2.25515 5.96177C1.91445 5.96177 1.51698 5.90499 1.17628 5.90499C1.17628 9.76619 -0.129712 22.8261 11.9081 28.6179C23.946 22.8261 22.64 9.76619 22.64 5.90499C22.2425 5.90499 21.9018 5.96177 21.5611 5.96177C15.6558 5.96177 11.9081 2.49805 11.9081 2.49805Z" fill="white"/>
<path d="M1.74464 6.41628C1.74464 8.11975 1.46073 11.697 2.31247 15.5582H11.9087V3.17969C11.9087 3.17969 7.93392 6.87054 1.74464 6.41628Z" fill="url(#paint2_linear)"/>
<path d="M11.9043 15.5586V27.9371C18.0368 24.9845 20.4784 20.0444 21.5005 15.5586H11.9043Z" fill="url(#paint3_linear)"/>
<path opacity="0.33" d="M10.2121 25.2108C6.23734 18.9648 8.50863 13.2865 10.2121 11.0152C11.1206 9.82281 9.92819 7.949 8.6222 6.47266C7.14586 7.09726 5.15848 7.55152 2.8304 7.38117C2.8304 10.5042 1.8651 20.6682 10.6096 25.8354C10.496 25.6651 10.3825 25.438 10.2121 25.2108Z" fill="white"/>
<path d="M11.908 24.0777C16.612 24.0777 20.4253 20.2643 20.4253 15.5603C20.4253 10.8563 16.612 7.04297 11.908 7.04297C7.20397 7.04297 3.39062 10.8563 3.39062 15.5603C3.39062 20.2643 7.20397 24.0777 11.908 24.0777Z" fill="url(#paint4_radial)"/>
<g opacity="0.39">
<path opacity="0.39" d="M11.908 15.5585C12.3622 18.5679 15.3149 16.8077 15.3149 18.9654C15.3149 20.6689 14.7471 22.3723 14.7471 22.3723C14.7471 22.3723 14.1792 24.0758 13.0436 25.7793C20.9931 19.5332 19.8575 13.855 19.8575 8.17676C16.6777 8.57423 11.624 13.5711 11.908 15.5585Z" fill="white"/>
</g>
<path d="M44.236 9.77166H42.2438C42.187 9.44496 42.0822 9.15554 41.9295 8.90341C41.7768 8.64773 41.5868 8.43111 41.3596 8.25355C41.1323 8.07599 40.873 7.94283 40.5819 7.85405C40.2942 7.76172 39.9835 7.71555 39.6497 7.71555C39.0566 7.71555 38.5311 7.8647 38.073 8.163C37.6149 8.45774 37.2562 8.89098 36.997 9.46271C36.7377 10.0309 36.6081 10.7251 36.6081 11.5455C36.6081 12.38 36.7377 13.0831 36.997 13.6548C37.2598 14.223 37.6184 14.6527 38.073 14.9439C38.5311 15.2315 39.0549 15.3754 39.6444 15.3754C39.9711 15.3754 40.2765 15.3327 40.5605 15.2475C40.8482 15.1587 41.1056 15.0291 41.3329 14.8587C41.5637 14.6882 41.7573 14.4787 41.9135 14.2301C42.0733 13.9815 42.1834 13.6974 42.2438 13.3778L44.236 13.3885C44.1614 13.907 43.9998 14.3935 43.7512 14.848C43.5062 15.3026 43.1848 15.7038 42.7871 16.0518C42.3894 16.3963 41.9242 16.6662 41.3915 16.8615C40.8588 17.0533 40.2676 17.1491 39.6177 17.1491C38.6589 17.1491 37.8031 16.9272 37.0502 16.4833C36.2974 16.0394 35.7044 15.3984 35.2711 14.5604C34.8379 13.7223 34.6213 12.7173 34.6213 11.5455C34.6213 10.37 34.8397 9.36506 35.2765 8.53054C35.7132 7.69247 36.3081 7.05149 37.0609 6.6076C37.8137 6.16371 38.666 5.94176 39.6177 5.94176C40.225 5.94176 40.7896 6.02699 41.3116 6.19744C41.8336 6.3679 42.2988 6.61825 42.7072 6.94851C43.1156 7.27521 43.4512 7.67649 43.714 8.15234C43.9803 8.62464 44.1543 9.16442 44.236 9.77166ZM49.5294 17.1598C48.7304 17.1598 48.0379 16.984 47.452 16.6325C46.866 16.2809 46.4115 15.7891 46.0883 15.157C45.7687 14.5249 45.6089 13.7862 45.6089 12.9411C45.6089 12.0959 45.7687 11.3555 46.0883 10.7198C46.4115 10.0842 46.866 9.59055 47.452 9.23899C48.0379 8.88743 48.7304 8.71165 49.5294 8.71165C50.3284 8.71165 51.0209 8.88743 51.6068 9.23899C52.1927 9.59055 52.6455 10.0842 52.9651 10.7198C53.2883 11.3555 53.4498 12.0959 53.4498 12.9411C53.4498 13.7862 53.2883 14.5249 52.9651 15.157C52.6455 15.7891 52.1927 16.2809 51.6068 16.6325C51.0209 16.984 50.3284 17.1598 49.5294 17.1598ZM49.54 15.6151C49.9733 15.6151 50.3355 15.4961 50.6267 15.2582C50.9179 15.0167 51.1345 14.6935 51.2765 14.2887C51.4221 13.8839 51.4949 13.4329 51.4949 12.9357C51.4949 12.435 51.4221 11.9822 51.2765 11.5774C51.1345 11.169 50.9179 10.8441 50.6267 10.6026C50.3355 10.3612 49.9733 10.2404 49.54 10.2404C49.0961 10.2404 48.7268 10.3612 48.4321 10.6026C48.1409 10.8441 47.9225 11.169 47.7769 11.5774C47.6349 11.9822 47.5638 12.435 47.5638 12.9357C47.5638 13.4329 47.6349 13.8839 47.7769 14.2887C47.9225 14.6935 48.1409 15.0167 48.4321 15.2582C48.7268 15.4961 49.0961 15.6151 49.54 15.6151ZM57.0147 12.206V17H55.0865V8.81818H56.9295V10.2085H57.0254C57.2136 9.75035 57.5137 9.38636 57.9256 9.11648C58.3411 8.84659 58.8542 8.71165 59.465 8.71165C60.0297 8.71165 60.5215 8.83239 60.9405 9.07386C61.3631 9.31534 61.6898 9.66513 61.9206 10.1232C62.155 10.5813 62.2704 11.1371 62.2669 11.7905V17H60.3386V12.0888C60.3386 11.5419 60.1966 11.114 59.9125 10.805C59.6319 10.4961 59.2431 10.3416 58.7459 10.3416C58.4086 10.3416 58.1085 10.4162 57.8457 10.5653C57.5865 10.7109 57.3823 10.9222 57.2331 11.1992C57.0875 11.4762 57.0147 11.8118 57.0147 12.206ZM70.6937 10.9808L68.9359 11.1726C68.8862 10.995 68.7992 10.8281 68.6749 10.6719C68.5542 10.5156 68.3908 10.3896 68.1848 10.2937C67.9789 10.1978 67.7267 10.1499 67.4284 10.1499C67.0272 10.1499 66.6898 10.2369 66.4164 10.4109C66.1465 10.5849 66.0133 10.8104 66.0169 11.0874C66.0133 11.3253 66.1003 11.5188 66.2779 11.668C66.459 11.8171 66.7573 11.9396 67.1728 12.0355L68.5684 12.3338C69.3425 12.5007 69.9178 12.7653 70.2942 13.1275C70.6742 13.4897 70.8659 13.9638 70.8695 14.5497C70.8659 15.0646 70.715 15.5192 70.4167 15.9134C70.122 16.304 69.7118 16.6094 69.1863 16.8295C68.6607 17.0497 68.057 17.1598 67.3752 17.1598C66.3738 17.1598 65.5676 16.9503 64.9569 16.5312C64.3461 16.1087 63.9821 15.521 63.8649 14.7681L65.7452 14.587C65.8304 14.9563 66.0115 15.2351 66.2885 15.4233C66.5655 15.6115 66.926 15.7056 67.3699 15.7056C67.8279 15.7056 68.1955 15.6115 68.4725 15.4233C68.753 15.2351 68.8933 15.0025 68.8933 14.7255C68.8933 14.4911 68.8027 14.2976 68.6216 14.1449C68.4441 13.9922 68.1671 13.875 67.7907 13.7933L66.3951 13.5004C65.6103 13.337 65.0297 13.0618 64.6532 12.6747C64.2768 12.2841 64.0904 11.7905 64.0939 11.1939C64.0904 10.6896 64.2271 10.2528 64.5041 9.88352C64.7846 9.51065 65.1735 9.22301 65.6706 9.0206C66.1713 8.81463 66.7484 8.71165 67.4018 8.71165C68.3606 8.71165 69.1152 8.91584 69.6657 9.32422C70.2196 9.7326 70.5623 10.2848 70.6937 10.9808ZM77.6744 13.5589V8.81818H79.6026V17H77.733V15.5458H77.6477C77.4631 16.0039 77.1594 16.3786 76.7369 16.6697C76.3178 16.9609 75.8011 17.1065 75.1868 17.1065C74.6506 17.1065 74.1765 16.9876 73.7646 16.7496C73.3562 16.5082 73.0366 16.1584 72.8058 15.7003C72.5749 15.2386 72.4595 14.6811 72.4595 14.0277V8.81818H74.3878V13.7294C74.3878 14.2479 74.5298 14.6598 74.8139 14.9652C75.098 15.2706 75.4709 15.4233 75.9325 15.4233C76.2166 15.4233 76.4918 15.354 76.7582 15.2156C77.0245 15.0771 77.2429 14.8711 77.4134 14.5977C77.5874 14.3207 77.6744 13.9744 77.6744 13.5589ZM81.5855 17V8.81818H83.4285V10.2085H83.5244C83.6949 9.7397 83.9772 9.37393 84.3714 9.11115C84.7655 8.84482 85.2361 8.71165 85.7829 8.71165C86.3369 8.71165 86.8039 8.84659 87.1839 9.11648C87.5674 9.38281 87.8373 9.7468 87.9935 10.2085H88.0787C88.2599 9.75391 88.5653 9.39169 88.9949 9.1218C89.4282 8.84837 89.9413 8.71165 90.5344 8.71165C91.2872 8.71165 91.9015 8.94957 92.3774 9.42543C92.8532 9.90128 93.0912 10.5955 93.0912 11.5082V17H91.1576V11.8065C91.1576 11.2987 91.0226 10.9276 90.7528 10.6932C90.4829 10.4553 90.1526 10.3363 89.762 10.3363C89.2968 10.3363 88.9328 10.4819 88.67 10.7731C88.4108 11.0607 88.2812 11.4354 88.2812 11.897V17H86.3902V11.7266C86.3902 11.304 86.2623 10.9666 86.0067 10.7145C85.7545 10.4624 85.4243 10.3363 85.0159 10.3363C84.7389 10.3363 84.4868 10.4073 84.2595 10.5494C84.0322 10.6879 83.8511 10.8849 83.7162 11.1406C83.5812 11.3928 83.5138 11.6875 83.5138 12.0249V17H81.5855ZM98.6696 17.1598C97.8493 17.1598 97.1408 16.9893 96.5442 16.6484C95.9512 16.304 95.4949 15.8175 95.1752 15.1889C94.8556 14.5568 94.6958 13.8129 94.6958 12.957C94.6958 12.1154 94.8556 11.3768 95.1752 10.7411C95.4984 10.1019 95.9494 9.60476 96.5282 9.24964C97.1071 8.89098 97.7871 8.71165 98.5684 8.71165C99.0726 8.71165 99.5485 8.79332 99.9959 8.95668C100.447 9.11648 100.845 9.36506 101.189 9.70241C101.537 10.0398 101.811 10.4695 102.009 10.9915C102.208 11.5099 102.308 12.1278 102.308 12.8452V13.4364H95.6014V12.1367H100.459C100.456 11.7674 100.376 11.4389 100.22 11.1513C100.063 10.8601 99.845 10.631 99.5645 10.4641C99.2875 10.2972 98.9643 10.2138 98.595 10.2138C98.2008 10.2138 97.8546 10.3097 97.5563 10.5014C97.258 10.6896 97.0254 10.9382 96.8585 11.2472C96.6951 11.5526 96.6117 11.8881 96.6081 12.2539V13.3885C96.6081 13.8643 96.6951 14.2727 96.8691 14.6136C97.0431 14.951 97.2864 15.2102 97.5989 15.3913C97.9114 15.5689 98.2772 15.6577 98.6962 15.6577C98.9767 15.6577 99.2306 15.6186 99.4579 15.5405C99.6852 15.4588 99.8823 15.3398 100.049 15.1836C100.216 15.0273 100.342 14.8338 100.427 14.603L102.228 14.8054C102.114 15.2812 101.898 15.6967 101.578 16.0518C101.262 16.4034 100.857 16.6768 100.363 16.8722C99.8699 17.0639 99.3052 17.1598 98.6696 17.1598ZM103.939 17V8.81818H105.809V10.1818H105.894C106.043 9.70952 106.299 9.34553 106.661 9.08984C107.027 8.83061 107.444 8.70099 107.913 8.70099C108.019 8.70099 108.138 8.70632 108.27 8.71697C108.405 8.72408 108.516 8.73651 108.605 8.75426V10.5281C108.524 10.4996 108.394 10.4748 108.216 10.4535C108.042 10.4286 107.874 10.4162 107.71 10.4162C107.359 10.4162 107.043 10.4925 106.762 10.6452C106.485 10.7944 106.267 11.0021 106.107 11.2685C105.947 11.5348 105.867 11.842 105.867 12.19V17H103.939ZM123.03 9.77166H121.038C120.981 9.44496 120.876 9.15554 120.723 8.90341C120.571 8.64773 120.381 8.43111 120.153 8.25355C119.926 8.07599 119.667 7.94283 119.376 7.85405C119.088 7.76172 118.777 7.71555 118.444 7.71555C117.851 7.71555 117.325 7.8647 116.867 8.163C116.409 8.45774 116.05 8.89098 115.791 9.46271C115.532 10.0309 115.402 10.7251 115.402 11.5455C115.402 12.38 115.532 13.0831 115.791 13.6548C116.054 14.223 116.412 14.6527 116.867 14.9439C117.325 15.2315 117.849 15.3754 118.438 15.3754C118.765 15.3754 119.07 15.3327 119.354 15.2475C119.642 15.1587 119.9 15.0291 120.127 14.8587C120.358 14.6882 120.551 14.4787 120.707 14.2301C120.867 13.9815 120.977 13.6974 121.038 13.3778L123.03 13.3885C122.955 13.907 122.794 14.3935 122.545 14.848C122.3 15.3026 121.979 15.7038 121.581 16.0518C121.183 16.3963 120.718 16.6662 120.185 16.8615C119.653 17.0533 119.062 17.1491 118.412 17.1491C117.453 17.1491 116.597 16.9272 115.844 16.4833C115.091 16.0394 114.498 15.3984 114.065 14.5604C113.632 13.7223 113.415 12.7173 113.415 11.5455C113.415 10.37 113.634 9.36506 114.07 8.53054C114.507 7.69247 115.102 7.05149 115.855 6.6076C116.608 6.16371 117.46 5.94176 118.412 5.94176C119.019 5.94176 119.584 6.02699 120.106 6.19744C120.628 6.3679 121.093 6.61825 121.501 6.94851C121.91 7.27521 122.245 7.67649 122.508 8.15234C122.774 8.62464 122.948 9.16442 123.03 9.77166ZM128.323 17.1598C127.524 17.1598 126.832 16.984 126.246 16.6325C125.66 16.2809 125.205 15.7891 124.882 15.157C124.563 14.5249 124.403 13.7862 124.403 12.9411C124.403 12.0959 124.563 11.3555 124.882 10.7198C125.205 10.0842 125.66 9.59055 126.246 9.23899C126.832 8.88743 127.524 8.71165 128.323 8.71165C129.122 8.71165 129.815 8.88743 130.401 9.23899C130.987 9.59055 131.439 10.0842 131.759 10.7198C132.082 11.3555 132.244 12.0959 132.244 12.9411C132.244 13.7862 132.082 14.5249 131.759 15.157C131.439 15.7891 130.987 16.2809 130.401 16.6325C129.815 16.984 129.122 17.1598 128.323 17.1598ZM128.334 15.6151C128.767 15.6151 129.129 15.4961 129.421 15.2582C129.712 15.0167 129.928 14.6935 130.07 14.2887C130.216 13.8839 130.289 13.4329 130.289 12.9357C130.289 12.435 130.216 11.9822 130.07 11.5774C129.928 11.169 129.712 10.8441 129.421 10.6026C129.129 10.3612 128.767 10.2404 128.334 10.2404C127.89 10.2404 127.521 10.3612 127.226 10.6026C126.935 10.8441 126.716 11.169 126.571 11.5774C126.429 11.9822 126.358 12.435 126.358 12.9357C126.358 13.4329 126.429 13.8839 126.571 14.2887C126.716 14.6935 126.935 15.0167 127.226 15.2582C127.521 15.4961 127.89 15.6151 128.334 15.6151ZM133.88 17V8.81818H135.723V10.2085H135.819C135.99 9.7397 136.272 9.37393 136.666 9.11115C137.06 8.84482 137.531 8.71165 138.078 8.71165C138.632 8.71165 139.099 8.84659 139.479 9.11648C139.862 9.38281 140.132 9.7468 140.288 10.2085H140.374C140.555 9.75391 140.86 9.39169 141.29 9.1218C141.723 8.84837 142.236 8.71165 142.829 8.71165C143.582 8.71165 144.196 8.94957 144.672 9.42543C145.148 9.90128 145.386 10.5955 145.386 11.5082V17H143.453V11.8065C143.453 11.2987 143.318 10.9276 143.048 10.6932C142.778 10.4553 142.448 10.3363 142.057 10.3363C141.592 10.3363 141.228 10.4819 140.965 10.7731C140.706 11.0607 140.576 11.4354 140.576 11.897V17H138.685V11.7266C138.685 11.304 138.557 10.9666 138.302 10.7145C138.049 10.4624 137.719 10.3363 137.311 10.3363C137.034 10.3363 136.782 10.4073 136.554 10.5494C136.327 10.6879 136.146 10.8849 136.011 11.1406C135.876 11.3928 135.809 11.6875 135.809 12.0249V17H133.88ZM147.342 20.0682V8.81818H149.239V10.1712H149.35C149.45 9.9723 149.59 9.76101 149.771 9.53729C149.952 9.31001 150.197 9.11648 150.506 8.95668C150.815 8.79332 151.21 8.71165 151.689 8.71165C152.321 8.71165 152.891 8.87322 153.399 9.19638C153.91 9.51598 154.315 9.99006 154.613 10.6186C154.915 11.2436 155.066 12.0107 155.066 12.9197C155.066 13.8182 154.919 14.5817 154.624 15.2102C154.329 15.8388 153.928 16.3182 153.42 16.6484C152.912 16.9787 152.337 17.1438 151.694 17.1438C151.225 17.1438 150.837 17.0657 150.528 16.9094C150.219 16.7532 149.97 16.565 149.782 16.3448C149.597 16.1211 149.453 15.9098 149.35 15.7109H149.271V20.0682H147.342ZM149.233 12.9091C149.233 13.4382 149.308 13.9016 149.457 14.2994C149.61 14.6971 149.828 15.0078 150.112 15.2315C150.4 15.4517 150.748 15.5618 151.156 15.5618C151.582 15.5618 151.939 15.4482 152.227 15.2209C152.515 14.9901 152.731 14.6758 152.877 14.2781C153.026 13.8768 153.1 13.4205 153.1 12.9091C153.1 12.4013 153.028 11.9503 152.882 11.5561C152.737 11.1619 152.52 10.853 152.232 10.6293C151.945 10.4055 151.586 10.2937 151.156 10.2937C150.744 10.2937 150.395 10.402 150.107 10.6186C149.819 10.8352 149.601 11.1388 149.452 11.5295C149.306 11.9201 149.233 12.38 149.233 12.9091ZM158.646 6.09091V17H156.717V6.09091H158.646ZM162.983 17.1651C162.464 17.1651 161.997 17.0728 161.582 16.8881C161.17 16.6999 160.843 16.4229 160.602 16.0572C160.364 15.6914 160.245 15.2404 160.245 14.7042C160.245 14.2425 160.33 13.8608 160.501 13.5589C160.671 13.2571 160.904 13.0156 161.198 12.8345C161.493 12.6534 161.825 12.5167 162.195 12.4244C162.567 12.3285 162.953 12.2592 163.35 12.2166C163.83 12.1669 164.219 12.1225 164.517 12.0835C164.815 12.0408 165.032 11.9769 165.167 11.8917C165.305 11.8029 165.375 11.6662 165.375 11.4815V11.4496C165.375 11.0483 165.256 10.7376 165.018 10.5174C164.78 10.2972 164.437 10.1871 163.99 10.1871C163.517 10.1871 163.143 10.2901 162.866 10.4961C162.592 10.7021 162.408 10.9453 162.312 11.2259L160.511 10.9702C160.653 10.473 160.888 10.0575 161.214 9.72372C161.541 9.38636 161.941 9.13423 162.413 8.96733C162.885 8.79688 163.407 8.71165 163.979 8.71165C164.373 8.71165 164.766 8.75781 165.156 8.85014C165.547 8.94247 165.904 9.09517 166.227 9.30824C166.55 9.51776 166.809 9.80362 167.005 10.1658C167.203 10.5281 167.303 10.9808 167.303 11.5241V17H165.449V15.8761H165.385C165.268 16.1033 165.103 16.3164 164.89 16.5153C164.68 16.7106 164.416 16.8686 164.096 16.9893C163.78 17.1065 163.409 17.1651 162.983 17.1651ZM163.484 15.7482C163.871 15.7482 164.206 15.6719 164.49 15.5192C164.774 15.3629 164.993 15.157 165.146 14.9013C165.302 14.6456 165.38 14.3668 165.38 14.065V13.1009C165.32 13.1506 165.217 13.1967 165.071 13.2393C164.929 13.282 164.769 13.3192 164.592 13.3512C164.414 13.3832 164.238 13.4116 164.064 13.4364C163.89 13.4613 163.739 13.4826 163.611 13.5004C163.324 13.5394 163.066 13.6033 162.839 13.6921C162.612 13.7809 162.432 13.9052 162.301 14.065C162.17 14.2212 162.104 14.4237 162.104 14.6722C162.104 15.0273 162.234 15.2955 162.493 15.4766C162.752 15.6577 163.082 15.7482 163.484 15.7482ZM169.242 17V8.81818H171.17V17H169.242ZM170.211 7.65696C169.902 7.65696 169.638 7.55575 169.418 7.35334C169.201 7.14737 169.093 6.90057 169.093 6.61293C169.093 6.32173 169.203 6.07493 169.423 5.87251C169.643 5.66655 169.906 5.56357 170.211 5.56357C170.517 5.56357 170.778 5.66655 170.994 5.87251C171.214 6.07493 171.324 6.32173 171.324 6.61293C171.324 6.90057 171.214 7.14737 170.994 7.35334C170.778 7.55575 170.517 7.65696 170.211 7.65696ZM175.081 12.206V17H173.153V8.81818H174.996V10.2085H175.092C175.28 9.75035 175.58 9.38636 175.992 9.11648C176.407 8.84659 176.921 8.71165 177.531 8.71165C178.096 8.71165 178.588 8.83239 179.007 9.07386C179.43 9.31534 179.756 9.66513 179.987 10.1232C180.221 10.5813 180.337 11.1371 180.333 11.7905V17H178.405V12.0888C178.405 11.5419 178.263 11.114 177.979 10.805C177.698 10.4961 177.309 10.3416 176.812 10.3416C176.475 10.3416 176.175 10.4162 175.912 10.5653C175.653 10.7109 175.449 10.9222 175.3 11.1992C175.154 11.4762 175.081 11.8118 175.081 12.206ZM186.379 8.81818V10.3097H181.676V8.81818H186.379ZM182.837 6.85795H184.765V14.5391C184.765 14.7983 184.804 14.9972 184.882 15.1357C184.964 15.2706 185.07 15.3629 185.202 15.4126C185.333 15.4624 185.479 15.4872 185.639 15.4872C185.759 15.4872 185.869 15.4783 185.969 15.4606C186.072 15.4428 186.15 15.4268 186.203 15.4126L186.528 16.9201C186.425 16.9556 186.278 16.9947 186.086 17.0373C185.898 17.0799 185.667 17.1048 185.394 17.1119C184.911 17.1261 184.476 17.0533 184.089 16.8935C183.702 16.7301 183.394 16.478 183.167 16.1371C182.943 15.7962 182.833 15.37 182.837 14.8587V6.85795ZM194.341 10.9808L192.583 11.1726C192.534 10.995 192.447 10.8281 192.322 10.6719C192.202 10.5156 192.038 10.3896 191.832 10.2937C191.626 10.1978 191.374 10.1499 191.076 10.1499C190.675 10.1499 190.337 10.2369 190.064 10.4109C189.794 10.5849 189.661 10.8104 189.664 11.0874C189.661 11.3253 189.748 11.5188 189.925 11.668C190.106 11.8171 190.405 11.9396 190.82 12.0355L192.216 12.3338C192.99 12.5007 193.565 12.7653 193.942 13.1275C194.322 13.4897 194.513 13.9638 194.517 14.5497C194.513 15.0646 194.362 15.5192 194.064 15.9134C193.769 16.304 193.359 16.6094 192.834 16.8295C192.308 17.0497 191.704 17.1598 191.023 17.1598C190.021 17.1598 189.215 16.9503 188.604 16.5312C187.994 16.1087 187.63 15.521 187.512 14.7681L189.393 14.587C189.478 14.9563 189.659 15.2351 189.936 15.4233C190.213 15.6115 190.573 15.7056 191.017 15.7056C191.475 15.7056 191.843 15.6115 192.12 15.4233C192.4 15.2351 192.541 15.0025 192.541 14.7255C192.541 14.4911 192.45 14.2976 192.269 14.1449C192.092 13.9922 191.815 13.875 191.438 13.7933L190.043 13.5004C189.258 13.337 188.677 13.0618 188.301 12.6747C187.924 12.2841 187.738 11.7905 187.741 11.1939C187.738 10.6896 187.875 10.2528 188.152 9.88352C188.432 9.51065 188.821 9.22301 189.318 9.0206C189.819 8.81463 190.396 8.71165 191.049 8.71165C192.008 8.71165 192.763 8.91584 193.313 9.32422C193.867 9.7326 194.21 10.2848 194.341 10.9808Z" fill="white"/>
<path d="M35.517 25.1818V31H34.6392V25.1818H35.517ZM42.4915 25.1818V31H41.6847L38.7273 26.733H38.6733V31H37.7955V25.1818H38.608L41.5682 29.4545H41.6222V25.1818H42.4915ZM46.6555 31H44.772V25.1818H46.7152C47.2853 25.1818 47.7749 25.2983 48.1839 25.5312C48.593 25.7623 48.9065 26.0947 49.1243 26.5284C49.344 26.9602 49.4538 27.4782 49.4538 28.0824C49.4538 28.6884 49.343 29.2093 49.1214 29.6449C48.9018 30.0805 48.5836 30.4157 48.1669 30.6506C47.7502 30.8835 47.2464 31 46.6555 31ZM45.6499 30.233H46.6072C47.0504 30.233 47.4188 30.1496 47.7124 29.983C48.0059 29.8144 48.2256 29.571 48.3714 29.2528C48.5173 28.9328 48.5902 28.5426 48.5902 28.0824C48.5902 27.6259 48.5173 27.2386 48.3714 26.9205C48.2275 26.6023 48.0125 26.3608 47.7266 26.196C47.4406 26.0312 47.0855 25.9489 46.6612 25.9489H45.6499V30.233ZM52.4233 25.1818V31H51.5455V25.1818H52.4233ZM55.1932 31H54.2614L56.3551 25.1818H57.3693L59.4631 31H58.5312L56.8864 26.2386H56.8409L55.1932 31ZM55.3494 28.7216H58.3722V29.4602H55.3494V28.7216ZM65.9993 25.1818V31H65.1925L62.2351 26.733H62.1811V31H61.3033V25.1818H62.1158L65.076 29.4545H65.13V25.1818H65.9993ZM76.2294 27.0739H75.343C75.3089 26.8845 75.2455 26.7178 75.1527 26.5739C75.0599 26.4299 74.9463 26.3078 74.8118 26.2074C74.6773 26.107 74.5268 26.0312 74.3601 25.9801C74.1953 25.929 74.0201 25.9034 73.8345 25.9034C73.4993 25.9034 73.1991 25.9877 72.9339 26.1562C72.6707 26.3248 72.4624 26.572 72.3089 26.8977C72.1574 27.2235 72.0817 27.6212 72.0817 28.0909C72.0817 28.5644 72.1574 28.964 72.3089 29.2898C72.4624 29.6155 72.6716 29.8617 72.9368 30.0284C73.2019 30.1951 73.5002 30.2784 73.8317 30.2784C74.0154 30.2784 74.1896 30.2538 74.3544 30.2045C74.5211 30.1534 74.6716 30.0786 74.8061 29.9801C74.9406 29.8816 75.0542 29.7614 75.147 29.6193C75.2417 29.4754 75.3071 29.3106 75.343 29.125L76.2294 29.1278C76.1821 29.4138 76.0902 29.6771 75.9538 29.9176C75.8194 30.1562 75.6461 30.3627 75.4339 30.5369C75.2237 30.7093 74.9832 30.8428 74.7124 30.9375C74.4415 31.0322 74.1461 31.0795 73.826 31.0795C73.3222 31.0795 72.8733 30.9602 72.4794 30.7216C72.0855 30.4811 71.7749 30.1373 71.5476 29.6903C71.3222 29.2434 71.2095 28.7102 71.2095 28.0909C71.2095 27.4697 71.3232 26.9366 71.5504 26.4915C71.7777 26.0445 72.0883 25.7017 72.4822 25.4631C72.8762 25.2225 73.3241 25.1023 73.826 25.1023C74.1347 25.1023 74.4226 25.1468 74.6896 25.2358C74.9586 25.3229 75.2 25.4517 75.4141 25.6222C75.6281 25.7907 75.8052 25.9972 75.9453 26.2415C76.0855 26.4839 76.1802 26.7614 76.2294 27.0739ZM83.3338 28.0909C83.3338 28.7121 83.2202 29.2462 82.9929 29.6932C82.7656 30.1383 82.4541 30.4811 82.0582 30.7216C81.6643 30.9602 81.2164 31.0795 80.7145 31.0795C80.2107 31.0795 79.7609 30.9602 79.3651 30.7216C78.9711 30.4811 78.6605 30.1373 78.4332 29.6903C78.206 29.2434 78.0923 28.7102 78.0923 28.0909C78.0923 27.4697 78.206 26.9366 78.4332 26.4915C78.6605 26.0445 78.9711 25.7017 79.3651 25.4631C79.7609 25.2225 80.2107 25.1023 80.7145 25.1023C81.2164 25.1023 81.6643 25.2225 82.0582 25.4631C82.4541 25.7017 82.7656 26.0445 82.9929 26.4915C83.2202 26.9366 83.3338 27.4697 83.3338 28.0909ZM82.4645 28.0909C82.4645 27.6174 82.3878 27.2187 82.2344 26.8949C82.0829 26.5691 81.8745 26.3229 81.6094 26.1562C81.3461 25.9877 81.0478 25.9034 80.7145 25.9034C80.3793 25.9034 80.08 25.9877 79.8168 26.1562C79.5535 26.3229 79.3452 26.5691 79.1918 26.8949C79.0402 27.2187 78.9645 27.6174 78.9645 28.0909C78.9645 28.5644 79.0402 28.964 79.1918 29.2898C79.3452 29.6136 79.5535 29.8598 79.8168 30.0284C80.08 30.1951 80.3793 30.2784 80.7145 30.2784C81.0478 30.2784 81.3461 30.1951 81.6094 30.0284C81.8745 29.8598 82.0829 29.6136 82.2344 29.2898C82.3878 28.964 82.4645 28.5644 82.4645 28.0909ZM90.1243 25.1818V31H89.3175L86.3601 26.733H86.3061V31H85.4283V25.1818H86.2408L89.201 29.4545H89.255V25.1818H90.1243ZM95.5781 26.7102C95.5478 26.4413 95.4228 26.233 95.2031 26.0852C94.9834 25.9356 94.7069 25.8608 94.3736 25.8608C94.1349 25.8608 93.9285 25.8987 93.7543 25.9744C93.58 26.0483 93.4446 26.1506 93.348 26.2812C93.2533 26.41 93.206 26.5568 93.206 26.7216C93.206 26.8598 93.2382 26.9792 93.3026 27.0795C93.3688 27.1799 93.455 27.2642 93.5611 27.3324C93.669 27.3987 93.7846 27.4545 93.9077 27.5C94.0308 27.5436 94.1491 27.5795 94.2628 27.608L94.831 27.7557C95.0166 27.8011 95.2069 27.8627 95.402 27.9403C95.5971 28.018 95.7779 28.1203 95.9446 28.2472C96.1113 28.3741 96.2457 28.5312 96.348 28.7188C96.4522 28.9062 96.5043 29.1307 96.5043 29.392C96.5043 29.7216 96.419 30.0142 96.2486 30.2699C96.08 30.5256 95.8348 30.7273 95.5128 30.875C95.1927 31.0227 94.8054 31.0966 94.3509 31.0966C93.9152 31.0966 93.5384 31.0275 93.2202 30.8892C92.902 30.7509 92.6529 30.5549 92.473 30.3011C92.2931 30.0455 92.1937 29.7424 92.1747 29.392H93.0554C93.0724 29.6023 93.1406 29.7775 93.2599 29.9176C93.3812 30.0559 93.5355 30.1591 93.723 30.2273C93.9124 30.2936 94.1198 30.3267 94.3452 30.3267C94.5933 30.3267 94.8139 30.2879 95.0071 30.2102C95.2022 30.1307 95.3556 30.0208 95.4673 29.8807C95.5791 29.7386 95.6349 29.5729 95.6349 29.3835C95.6349 29.2112 95.5857 29.0701 95.4872 28.9602C95.3906 28.8504 95.259 28.7595 95.0923 28.6875C94.9276 28.6155 94.741 28.5521 94.5327 28.4972L93.8452 28.3097C93.3793 28.1828 93.0099 27.9962 92.7372 27.75C92.4664 27.5038 92.331 27.178 92.331 26.7727C92.331 26.4375 92.4219 26.1449 92.6037 25.8949C92.7855 25.6449 93.0317 25.4508 93.3423 25.3125C93.6529 25.1723 94.0033 25.1023 94.3935 25.1023C94.7874 25.1023 95.1349 25.1714 95.4361 25.3097C95.7391 25.4479 95.9777 25.6383 96.152 25.8807C96.3262 26.1212 96.4171 26.3977 96.4247 26.7102H95.5781ZM102.295 25.1818H103.175V29.0085C103.175 29.4157 103.08 29.7765 102.888 30.0909C102.697 30.4034 102.428 30.6496 102.082 30.8295C101.735 31.0076 101.329 31.0966 100.863 31.0966C100.399 31.0966 99.9936 31.0076 99.647 30.8295C99.3004 30.6496 99.0315 30.4034 98.8402 30.0909C98.6489 29.7765 98.5533 29.4157 98.5533 29.0085V25.1818H99.4311V28.9375C99.4311 29.2008 99.4889 29.4347 99.6044 29.6392C99.7218 29.8438 99.8875 30.0047 100.102 30.1222C100.316 30.2377 100.569 30.2955 100.863 30.2955C101.158 30.2955 101.413 30.2377 101.627 30.1222C101.843 30.0047 102.008 29.8438 102.121 29.6392C102.237 29.4347 102.295 29.2008 102.295 28.9375V25.1818ZM105.452 25.1818H106.517L108.369 29.7045H108.438L110.29 25.1818H111.355V31H110.52V26.7898H110.466L108.75 30.9915H108.057L106.341 26.7869H106.287V31H105.452V25.1818ZM113.631 31V25.1818H117.279V25.9375H114.509V27.7102H117.089V28.4631H114.509V30.2443H117.313V31H113.631ZM119.452 31V25.1818H121.526C121.976 25.1818 122.35 25.2595 122.648 25.4148C122.947 25.5701 123.17 25.785 123.318 26.0597C123.466 26.3324 123.54 26.6477 123.54 27.0057C123.54 27.3617 123.465 27.6752 123.315 27.946C123.168 28.215 122.944 28.4242 122.645 28.5739C122.348 28.7235 121.973 28.7983 121.523 28.7983H119.952V28.0426H121.443C121.727 28.0426 121.958 28.0019 122.136 27.9205C122.316 27.839 122.448 27.7206 122.531 27.5653C122.615 27.41 122.656 27.2235 122.656 27.0057C122.656 26.786 122.614 26.5956 122.528 26.4347C122.445 26.2737 122.313 26.1506 122.134 26.0653C121.955 25.9782 121.722 25.9347 121.432 25.9347H120.33V31H119.452ZM122.324 28.375L123.761 31H122.761L121.352 28.375H122.324ZM133.558 27.0739H132.671C132.637 26.8845 132.574 26.7178 132.481 26.5739C132.388 26.4299 132.274 26.3078 132.14 26.2074C132.005 26.107 131.855 26.0312 131.688 25.9801C131.523 25.929 131.348 25.9034 131.163 25.9034C130.827 25.9034 130.527 25.9877 130.262 26.1562C129.999 26.3248 129.79 26.572 129.637 26.8977C129.486 27.2235 129.41 27.6212 129.41 28.0909C129.41 28.5644 129.486 28.964 129.637 29.2898C129.79 29.6155 130 29.8617 130.265 30.0284C130.53 30.1951 130.828 30.2784 131.16 30.2784C131.344 30.2784 131.518 30.2538 131.683 30.2045C131.849 30.1534 132 30.0786 132.134 29.9801C132.269 29.8816 132.382 29.7614 132.475 29.6193C132.57 29.4754 132.635 29.3106 132.671 29.125L133.558 29.1278C133.51 29.4138 133.418 29.6771 133.282 29.9176C133.147 30.1562 132.974 30.3627 132.762 30.5369C132.552 30.7093 132.311 30.8428 132.04 30.9375C131.77 31.0322 131.474 31.0795 131.154 31.0795C130.65 31.0795 130.201 30.9602 129.808 30.7216C129.414 30.4811 129.103 30.1373 128.876 29.6903C128.65 29.2434 128.538 28.7102 128.538 28.0909C128.538 27.4697 128.651 26.9366 128.879 26.4915C129.106 26.0445 129.416 25.7017 129.81 25.4631C130.204 25.2225 130.652 25.1023 131.154 25.1023C131.463 25.1023 131.751 25.1468 132.018 25.2358C132.287 25.3229 132.528 25.4517 132.742 25.6222C132.956 25.7907 133.133 25.9972 133.273 26.2415C133.414 26.4839 133.508 26.7614 133.558 27.0739ZM140.662 28.0909C140.662 28.7121 140.548 29.2462 140.321 29.6932C140.094 30.1383 139.782 30.4811 139.386 30.7216C138.992 30.9602 138.545 31.0795 138.043 31.0795C137.539 31.0795 137.089 30.9602 136.693 30.7216C136.299 30.4811 135.989 30.1373 135.761 29.6903C135.534 29.2434 135.42 28.7102 135.42 28.0909C135.42 27.4697 135.534 26.9366 135.761 26.4915C135.989 26.0445 136.299 25.7017 136.693 25.4631C137.089 25.2225 137.539 25.1023 138.043 25.1023C138.545 25.1023 138.992 25.2225 139.386 25.4631C139.782 25.7017 140.094 26.0445 140.321 26.4915C140.548 26.9366 140.662 27.4697 140.662 28.0909ZM139.793 28.0909C139.793 27.6174 139.716 27.2187 139.562 26.8949C139.411 26.5691 139.203 26.3229 138.938 26.1562C138.674 25.9877 138.376 25.9034 138.043 25.9034C137.707 25.9034 137.408 25.9877 137.145 26.1562C136.882 26.3229 136.673 26.5691 136.52 26.8949C136.368 27.2187 136.293 27.6174 136.293 28.0909C136.293 28.5644 136.368 28.964 136.52 29.2898C136.673 29.6136 136.882 29.8598 137.145 30.0284C137.408 30.1951 137.707 30.2784 138.043 30.2784C138.376 30.2784 138.674 30.1951 138.938 30.0284C139.203 29.8598 139.411 29.6136 139.562 29.2898C139.716 28.964 139.793 28.5644 139.793 28.0909ZM142.756 25.1818H143.822L145.674 29.7045H145.742L147.594 25.1818H148.66V31H147.825V26.7898H147.771L146.055 30.9915H145.362L143.646 26.7869H143.592V31H142.756V25.1818ZM150.936 31V25.1818H153.01C153.463 25.1818 153.838 25.2642 154.135 25.429C154.432 25.5937 154.655 25.8191 154.803 26.1051C154.95 26.3892 155.024 26.7093 155.024 27.0653C155.024 27.4233 154.949 27.7453 154.8 28.0312C154.652 28.3153 154.429 28.5407 154.129 28.7074C153.832 28.8722 153.458 28.9545 153.007 28.9545H151.581V28.2102H152.928C153.214 28.2102 153.446 28.161 153.624 28.0625C153.802 27.9621 153.932 27.8258 154.016 27.6534C154.099 27.4811 154.141 27.285 154.141 27.0653C154.141 26.8456 154.099 26.6506 154.016 26.4801C153.932 26.3097 153.801 26.1761 153.621 26.0795C153.443 25.983 153.208 25.9347 152.916 25.9347H151.814V31H150.936ZM157.053 31V25.1818H157.931V30.2443H160.567V31H157.053ZM163.349 31H162.418L164.511 25.1818H165.526L167.619 31H166.688L165.043 26.2386H164.997L163.349 31ZM163.506 28.7216H166.528V29.4602H163.506V28.7216ZM170.337 25.1818V31H169.46V25.1818H170.337ZM177.312 25.1818V31H176.505L173.548 26.733H173.494V31H172.616V25.1818H173.428L176.388 29.4545H176.442V25.1818H177.312ZM179.305 25.9375V25.1818H183.808V25.9375H181.993V31H181.118V25.9375H179.305ZM188.977 26.7102C188.946 26.4413 188.821 26.233 188.602 26.0852C188.382 25.9356 188.105 25.8608 187.772 25.8608C187.533 25.8608 187.327 25.8987 187.153 25.9744C186.978 26.0483 186.843 26.1506 186.746 26.2812C186.652 26.41 186.604 26.5568 186.604 26.7216C186.604 26.8598 186.637 26.9792 186.701 27.0795C186.767 27.1799 186.853 27.2642 186.96 27.3324C187.067 27.3987 187.183 27.4545 187.306 27.5C187.429 27.5436 187.548 27.5795 187.661 27.608L188.229 27.7557C188.415 27.8011 188.605 27.8627 188.8 27.9403C188.996 28.018 189.176 28.1203 189.343 28.2472C189.51 28.3741 189.644 28.5312 189.746 28.7188C189.851 28.9062 189.903 29.1307 189.903 29.392C189.903 29.7216 189.817 30.0142 189.647 30.2699C189.478 30.5256 189.233 30.7273 188.911 30.875C188.591 31.0227 188.204 31.0966 187.749 31.0966C187.314 31.0966 186.937 31.0275 186.619 30.8892C186.3 30.7509 186.051 30.5549 185.871 30.3011C185.692 30.0455 185.592 29.7424 185.573 29.392H186.454C186.471 29.6023 186.539 29.7775 186.658 29.9176C186.78 30.0559 186.934 30.1591 187.121 30.2273C187.311 30.2936 187.518 30.3267 187.744 30.3267C187.992 30.3267 188.212 30.2879 188.406 30.2102C188.601 30.1307 188.754 30.0208 188.866 29.8807C188.978 29.7386 189.033 29.5729 189.033 29.3835C189.033 29.2112 188.984 29.0701 188.886 28.9602C188.789 28.8504 188.657 28.7595 188.491 28.6875C188.326 28.6155 188.139 28.5521 187.931 28.4972L187.244 28.3097C186.778 28.1828 186.408 27.9962 186.136 27.75C185.865 27.5038 185.729 27.178 185.729 26.7727C185.729 26.4375 185.82 26.1449 186.002 25.8949C186.184 25.6449 186.43 25.4508 186.741 25.3125C187.051 25.1723 187.402 25.1023 187.792 25.1023C188.186 25.1023 188.533 25.1714 188.835 25.3097C189.138 25.4479 189.376 25.6383 189.55 25.8807C189.725 26.1212 189.816 26.3977 189.823 26.7102H188.977ZM195.069 31V25.1818H198.677V25.9375H195.947V27.7102H198.418V28.4631H195.947V31H195.069ZM205.81 28.0909C205.81 28.7121 205.697 29.2462 205.469 29.6932C205.242 30.1383 204.931 30.4811 204.535 30.7216C204.141 30.9602 203.693 31.0795 203.191 31.0795C202.687 31.0795 202.237 30.9602 201.842 30.7216C201.448 30.4811 201.137 30.1373 200.91 29.6903C200.683 29.2434 200.569 28.7102 200.569 28.0909C200.569 27.4697 200.683 26.9366 200.91 26.4915C201.137 26.0445 201.448 25.7017 201.842 25.4631C202.237 25.2225 202.687 25.1023 203.191 25.1023C203.693 25.1023 204.141 25.2225 204.535 25.4631C204.931 25.7017 205.242 26.0445 205.469 26.4915C205.697 26.9366 205.81 27.4697 205.81 28.0909ZM204.941 28.0909C204.941 27.6174 204.864 27.2187 204.711 26.8949C204.559 26.5691 204.351 26.3229 204.086 26.1562C203.823 25.9877 203.524 25.9034 203.191 25.9034C202.856 25.9034 202.557 25.9877 202.293 26.1562C202.03 26.3229 201.822 26.5691 201.668 26.8949C201.517 27.2187 201.441 27.6174 201.441 28.0909C201.441 28.5644 201.517 28.964 201.668 29.2898C201.822 29.6136 202.03 29.8598 202.293 30.0284C202.557 30.1951 202.856 30.2784 203.191 30.2784C203.524 30.2784 203.823 30.1951 204.086 30.0284C204.351 29.8598 204.559 29.6136 204.711 29.2898C204.864 28.964 204.941 28.5644 204.941 28.0909ZM207.905 31V25.1818H209.979C210.429 25.1818 210.804 25.2595 211.101 25.4148C211.4 25.5701 211.624 25.785 211.771 26.0597C211.919 26.3324 211.993 26.6477 211.993 27.0057C211.993 27.3617 211.918 27.6752 211.768 27.946C211.621 28.215 211.397 28.4242 211.098 28.5739C210.801 28.7235 210.427 28.7983 209.976 28.7983H208.405V28.0426H209.896C210.18 28.0426 210.411 28.0019 210.589 27.9205C210.769 27.839 210.901 27.7206 210.984 27.5653C211.068 27.41 211.109 27.2235 211.109 27.0057C211.109 26.786 211.067 26.5956 210.982 26.4347C210.898 26.2737 210.767 26.1506 210.587 26.0653C210.409 25.9782 210.175 25.9347 209.885 25.9347H208.783V31H207.905ZM210.777 28.375L212.214 31H211.214L209.805 28.375H210.777ZM217.803 25.1818H218.683V29.0085C218.683 29.4157 218.588 29.7765 218.396 30.0909C218.205 30.4034 217.936 30.6496 217.589 30.8295C217.243 31.0076 216.837 31.0966 216.371 31.0966C215.907 31.0966 215.501 31.0076 215.155 30.8295C214.808 30.6496 214.539 30.4034 214.348 30.0909C214.157 29.7765 214.061 29.4157 214.061 29.0085V25.1818H214.939V28.9375C214.939 29.2008 214.997 29.4347 215.112 29.6392C215.23 29.8438 215.395 30.0047 215.609 30.1222C215.823 30.2377 216.077 30.2955 216.371 30.2955C216.666 30.2955 216.921 30.2377 217.135 30.1222C217.351 30.0047 217.516 29.8438 217.629 29.6392C217.745 29.4347 217.803 29.2008 217.803 28.9375V25.1818ZM220.96 25.1818H222.025L223.877 29.7045H223.945L225.798 25.1818H226.863V31H226.028V26.7898H225.974L224.258 30.9915H223.565L221.849 26.7869H221.795V31H220.96V25.1818Z" fill="#CAE99A"/>
<defs>
<radialGradient id="paint0_radial" cx="0" cy="0" r="1" gradientUnits="userSpaceOnUse" gradientTransform="translate(11.911 18.0073) scale(13.2385 16.5048)">
<stop stop-opacity="0.5"/>
<stop offset="0.8378" stop-opacity="0"/>
</radialGradient>
<radialGradient id="paint1_radial" cx="0" cy="0" r="1" gradientUnits="userSpaceOnUse" gradientTransform="translate(11.9143 15.5803) scale(11.7415 23.483)">
<stop stop-color="white"/>
<stop offset="0.2486" stop-color="#FCFCFC"/>
<stop offset="0.4498" stop-color="#F2F2F2"/>
<stop offset="0.6343" stop-color="#E1E1E1"/>
<stop offset="0.8089" stop-color="#C9C9C9"/>
<stop offset="0.975" stop-color="#AAAAAA"/>
<stop offset="1" stop-color="#A5A5A5"/>
</radialGradient>
<linearGradient id="paint2_linear" x1="2.9377" y1="5.19682" x2="12.6045" y2="14.8636" gradientUnits="userSpaceOnUse">
<stop stop-color="#FF8008"/>
<stop offset="1" stop-color="#FFE100"/>
</linearGradient>
<linearGradient id="paint3_linear" x1="11.2085" y1="16.2555" x2="18.1278" y2="23.1748" gradientUnits="userSpaceOnUse">
<stop stop-color="#9EEA00"/>
<stop offset="1" stop-color="#358700"/>
</linearGradient>
<radialGradient id="paint4_radial" cx="0" cy="0" r="1" gradientUnits="userSpaceOnUse" gradientTransform="translate(11.908 15.5615) scale(8.51735)">
<stop stop-color="white"/>
<stop offset="1" stop-color="white" stop-opacity="0"/>
</radialGradient>
</defs>
</svg>
