<svg width="27" height="36" viewBox="0 0 27 36" fill="none" xmlns="http://www.w3.org/2000/svg">
<path d="M26.4211 5.23659C18.4085 5.9306 13.235 0 13.235 0C13.235 0 8.06151 5.9306 0.0488894 5.23659C0.0488894 11.1672 -1.5284 27.1041 13.235 36C27.9984 27.1041 26.4211 11.1672 26.4211 5.23659Z" fill="url(#paint0_radial)"/>
<path d="M13.2392 31.5441C1.12566 25.6135 1.37802 13.0583 1.50421 7.69552C1.50421 7.38007 1.50421 7.06461 1.50421 6.81224C1.81967 6.81224 2.19821 6.81224 2.51367 6.81224C8.38118 6.81224 12.419 3.78385 13.2392 3.08984C14.0594 3.78385 18.0973 6.81224 23.9648 6.81224C24.2802 6.81224 24.5957 6.81224 24.9742 6.81224C24.9742 7.06461 24.9742 7.38007 24.9742 7.69552C25.1004 13.0583 25.3528 25.6135 13.2392 31.5441Z" fill="url(#paint1_radial)"/>
<path d="M13.2302 3.40631C14.3658 4.28959 18.2144 7.06561 23.9557 7.06561C24.2081 7.06561 24.4605 7.06561 24.7128 7.06561C24.7128 7.25489 24.7128 7.50725 24.7128 7.75962C24.839 13.0593 25.0914 25.4252 13.2302 31.2927C1.36899 25.4252 1.62135 12.9962 1.74753 7.69653C1.74753 7.44416 1.74753 7.25489 1.74753 7.00252C1.9999 7.00252 2.25227 7.00252 2.50463 7.00252C8.24595 7.06561 12.0945 4.28959 13.2302 3.40631ZM13.2302 2.77539C13.2302 2.77539 9.06614 6.62397 2.50463 6.62397C2.12608 6.62397 1.68444 6.56088 1.30589 6.56088C1.30589 10.8511 -0.145209 25.3621 13.2302 31.7975C26.6056 25.3621 25.1545 10.8511 25.1545 6.56088C24.7128 6.56088 24.3343 6.62397 23.9557 6.62397C17.3942 6.62397 13.2302 2.77539 13.2302 2.77539Z" fill="white"/>
<path d="M1.93719 7.12795C1.93719 9.02069 1.62173 12.9955 2.56811 17.2857H13.2306V3.53174C13.2306 3.53174 8.81416 7.63268 1.93719 7.12795Z" fill="url(#paint2_linear)"/>
<path d="M13.2246 17.2886V31.0425C20.0385 27.7618 22.7514 22.2728 23.8871 17.2886H13.2246Z" fill="url(#paint3_linear)"/>
<path opacity="0.33" d="M11.3483 28.0116C6.9319 21.0715 9.45556 14.7624 11.3483 12.2387C12.3578 10.9138 11.0328 8.83178 9.58174 7.19141C7.94136 7.88541 5.73316 8.39014 3.14641 8.20087C3.14641 11.6709 2.07385 22.9643 11.7899 28.7056C11.6638 28.5163 11.5376 28.264 11.3483 28.0116Z" fill="white"/>
<path d="M13.2294 26.7519C18.456 26.7519 22.6931 22.5149 22.6931 17.2882C22.6931 12.0615 18.456 7.82446 13.2294 7.82446C8.00268 7.82446 3.76562 12.0615 3.76562 17.2882C3.76562 22.5149 8.00268 26.7519 13.2294 26.7519Z" fill="url(#paint4_radial)"/>
<g opacity="0.39">
<path opacity="0.39" d="M13.2295 17.2883C13.7343 20.6322 17.015 18.6763 17.015 21.0738C17.015 22.9665 16.3841 24.8593 16.3841 24.8593C16.3841 24.8593 15.7532 26.752 14.4914 28.6448C23.3242 21.7047 22.0623 15.3956 22.0623 9.08643C18.5292 9.52807 12.9141 15.0801 13.2295 17.2883Z" fill="white"/>
</g>
<defs>
<radialGradient id="paint0_radial" cx="0" cy="0" r="1" gradientUnits="userSpaceOnUse" gradientTransform="translate(13.2345 20.0081) scale(14.7094 18.3386)">
<stop stop-opacity="0.5"/>
<stop offset="0.8378" stop-opacity="0"/>
</radialGradient>
<radialGradient id="paint1_radial" cx="0" cy="0" r="1" gradientUnits="userSpaceOnUse" gradientTransform="translate(13.2392 17.311) scale(13.0461 26.0922)">
<stop stop-color="white"/>
<stop offset="0.2486" stop-color="#FCFCFC"/>
<stop offset="0.4498" stop-color="#F2F2F2"/>
<stop offset="0.6343" stop-color="#E1E1E1"/>
<stop offset="0.8089" stop-color="#C9C9C9"/>
<stop offset="0.975" stop-color="#AAAAAA"/>
<stop offset="1" stop-color="#A5A5A5"/>
</radialGradient>
<linearGradient id="paint2_linear" x1="3.26281" y1="5.773" x2="14.0037" y2="16.5138" gradientUnits="userSpaceOnUse">
<stop stop-color="#FF8008"/>
<stop offset="1" stop-color="#FFE100"/>
</linearGradient>
<linearGradient id="paint3_linear" x1="12.4515" y1="18.063" x2="20.1396" y2="25.751" gradientUnits="userSpaceOnUse">
<stop stop-color="#9EEA00"/>
<stop offset="1" stop-color="#358700"/>
</linearGradient>
<radialGradient id="paint4_radial" cx="0" cy="0" r="1" gradientUnits="userSpaceOnUse" gradientTransform="translate(13.2294 17.2895) scale(9.46373)">
<stop stop-color="white"/>
<stop offset="1" stop-color="white" stop-opacity="0"/>
</radialGradient>
</defs>
</svg>
