<svg width="215" height="29" viewBox="0 0 215 29" fill="none" xmlns="http://www.w3.org/2000/svg">
<path d="M11.1478 4.85657H8.9343C8.87117 4.49357 8.75478 4.17199 8.58511 3.89185C8.41544 3.60775 8.20435 3.36707 7.95182 3.16978C7.6993 2.9725 7.41126 2.82453 7.08771 2.72589C6.76811 2.6233 6.42286 2.57201 6.05197 2.57201C5.39303 2.57201 4.80907 2.73773 4.30007 3.06917C3.79107 3.39666 3.39256 3.87804 3.10452 4.51329C2.81648 5.14461 2.67247 5.91599 2.67247 6.82745C2.67247 7.75469 2.81648 8.53594 3.10452 9.1712C3.3965 9.80252 3.79502 10.2799 4.30007 10.6035C4.80907 10.9231 5.39106 11.0829 6.04605 11.0829C6.40905 11.0829 6.74838 11.0355 7.06404 10.9409C7.38364 10.8422 7.6697 10.6982 7.92223 10.5088C8.1787 10.3194 8.39374 10.0866 8.56735 9.81041C8.74491 9.53421 8.86723 9.21855 8.9343 8.86344L11.1478 8.87527C11.065 9.45135 10.8855 9.99191 10.6093 10.497C10.337 11.002 9.97992 11.4479 9.538 11.8346C9.09608 12.2173 8.57919 12.5172 7.98733 12.7342C7.39548 12.9472 6.73852 13.0538 6.01645 13.0538C4.95111 13.0538 4.0002 12.8072 3.16371 12.314C2.32722 11.8207 1.66828 11.1085 1.18691 10.1774C0.705532 9.24617 0.464844 8.12954 0.464844 6.82745C0.464844 5.52142 0.707505 4.40479 1.19283 3.47755C1.67815 2.54636 2.33905 1.83416 3.17554 1.34095C4.01203 0.847733 4.959 0.601126 6.01645 0.601126C6.69117 0.601126 7.31854 0.695823 7.89856 0.885217C8.47857 1.07461 8.99546 1.35278 9.44922 1.71973C9.90297 2.08274 10.2758 2.5286 10.5678 3.05733C10.8638 3.58211 11.0571 4.18186 11.1478 4.85657Z" fill="white"/>
<path d="M17.0294 13.0656C16.1416 13.0656 15.3722 12.8703 14.7212 12.4797C14.0701 12.0891 13.5651 11.5426 13.206 10.8402C12.8509 10.1379 12.6734 9.31719 12.6734 8.37812C12.6734 7.43904 12.8509 6.61636 13.206 5.91008C13.5651 5.20379 14.0701 4.65534 14.7212 4.26472C15.3722 3.87409 16.1416 3.67878 17.0294 3.67878C17.9172 3.67878 18.6866 3.87409 19.3377 4.26472C19.9887 4.65534 20.4918 5.20379 20.8469 5.91008C21.2059 6.61636 21.3855 7.43904 21.3855 8.37812C21.3855 9.31719 21.2059 10.1379 20.8469 10.8402C20.4918 11.5426 19.9887 12.0891 19.3377 12.4797C18.6866 12.8703 17.9172 13.0656 17.0294 13.0656ZM17.0413 11.3492C17.5226 11.3492 17.9251 11.2171 18.2486 10.9527C18.5722 10.6844 18.8129 10.3253 18.9707 9.87551C19.1325 9.4257 19.2134 8.9246 19.2134 8.3722C19.2134 7.81585 19.1325 7.31277 18.9707 6.86296C18.8129 6.40921 18.5722 6.04818 18.2486 5.77987C17.9251 5.51156 17.5226 5.3774 17.0413 5.3774C16.548 5.3774 16.1377 5.51156 15.8102 5.77987C15.4866 6.04818 15.244 6.40921 15.0822 6.86296C14.9244 7.31277 14.8455 7.81585 14.8455 8.3722C14.8455 8.9246 14.9244 9.4257 15.0822 9.87551C15.244 10.3253 15.4866 10.6844 15.8102 10.9527C16.1377 11.2171 16.548 11.3492 17.0413 11.3492Z" fill="white"/>
<path d="M25.3465 7.56135V12.8881H23.204V3.79715H25.2518V5.34189H25.3583C25.5674 4.8329 25.9008 4.42846 26.3585 4.12859C26.8202 3.82872 27.3903 3.67878 28.069 3.67878C28.6964 3.67878 29.2429 3.81293 29.7085 4.08124C30.178 4.34955 30.541 4.7382 30.7975 5.2472C31.0579 5.75619 31.1861 6.3737 31.1822 7.09971V12.8881H29.0397V7.43115C29.0397 6.82351 28.8818 6.34805 28.5662 6.00477C28.2545 5.6615 27.8224 5.48986 27.27 5.48986C26.8952 5.48986 26.5617 5.57272 26.2698 5.73844C25.9817 5.90021 25.7549 6.13498 25.5891 6.44275C25.4274 6.75051 25.3465 7.12338 25.3465 7.56135Z" fill="white"/>
<path d="M40.5453 6.20008L38.5922 6.41315C38.537 6.21587 38.4403 6.03042 38.3022 5.85681C38.168 5.6832 37.9865 5.54312 37.7577 5.43659C37.5288 5.33006 37.2487 5.27679 36.9173 5.27679C36.4714 5.27679 36.0965 5.37346 35.7927 5.5668C35.4929 5.76014 35.3449 6.01069 35.3488 6.31846C35.3449 6.58282 35.4416 6.79786 35.6388 6.96358C35.8401 7.1293 36.1715 7.26543 36.6332 7.37196L38.1838 7.7034C39.044 7.88885 39.6832 8.1828 40.1014 8.58527C40.5236 8.98773 40.7367 9.51448 40.7406 10.1655C40.7367 10.7376 40.569 11.2427 40.2376 11.6807C39.9101 12.1147 39.4543 12.454 38.8704 12.6987C38.2864 12.9433 37.6156 13.0656 36.8581 13.0656C35.7454 13.0656 34.8497 12.8328 34.171 12.3672C33.4924 11.8977 33.0879 11.2447 32.9577 10.4082L35.047 10.207C35.1417 10.6173 35.3429 10.927 35.6507 11.1362C35.9585 11.3453 36.3589 11.4498 36.8522 11.4498C37.3611 11.4498 37.7695 11.3453 38.0773 11.1362C38.389 10.927 38.5449 10.6686 38.5449 10.3608C38.5449 10.1004 38.4442 9.88538 38.243 9.71571C38.0457 9.54604 37.738 9.41584 37.3197 9.32508L35.7691 8.99956C34.8971 8.81806 34.2519 8.51227 33.8337 8.08219C33.4154 7.64816 33.2083 7.09971 33.2122 6.43683C33.2083 5.87654 33.3602 5.39121 33.668 4.98086C33.9797 4.56656 34.4117 4.24696 34.9641 4.02205C35.5205 3.7932 36.1617 3.67878 36.8877 3.67878C37.953 3.67878 38.7915 3.90566 39.403 4.35941C40.0186 4.81317 40.3993 5.42673 40.5453 6.20008Z" fill="white"/>
<path d="M48.3016 9.06467V3.79715H50.4441V12.8881H48.3667V11.2723H48.272C48.0668 11.7813 47.7295 12.1976 47.2599 12.5211C46.7943 12.8447 46.2202 13.0064 45.5376 13.0064C44.9418 13.0064 44.4151 12.8742 43.9574 12.6099C43.5036 12.3416 43.1485 11.9529 42.892 11.4439C42.6356 10.931 42.5073 10.3115 42.5073 9.5855V3.79715H44.6499V9.25406C44.6499 9.83014 44.8077 10.2878 45.1233 10.6272C45.439 10.9665 45.8533 11.1362 46.3662 11.1362C46.6819 11.1362 46.9877 11.0592 47.2836 10.9053C47.5795 10.7515 47.8222 10.5226 48.0116 10.2188C48.2049 9.91102 48.3016 9.52632 48.3016 9.06467Z" fill="white"/>
<path d="M52.6473 12.8881V3.79715H54.6951V5.34189H54.8017C54.9911 4.82106 55.3047 4.41465 55.7427 4.12267C56.1807 3.82674 56.7035 3.67878 57.3111 3.67878C57.9267 3.67878 58.4455 3.82872 58.8677 4.12859C59.2938 4.42452 59.5937 4.82895 59.7673 5.34189H59.862C60.0633 4.83684 60.4026 4.43438 60.88 4.13451C61.3614 3.83069 61.9316 3.67878 62.5905 3.67878C63.427 3.67878 64.1096 3.94314 64.6383 4.47186C65.167 5.00059 65.4314 5.77198 65.4314 6.78602V12.8881H63.283V7.11746C63.283 6.55323 63.133 6.1409 62.8332 5.88048C62.5333 5.61612 62.1663 5.48394 61.7323 5.48394C61.2154 5.48394 60.811 5.64571 60.519 5.96926C60.231 6.28886 60.0869 6.70514 60.0869 7.21808V12.8881H57.9859V7.02868C57.9859 6.55914 57.8438 6.1843 57.5597 5.90416C57.2796 5.62401 56.9126 5.48394 56.4589 5.48394C56.1511 5.48394 55.871 5.56285 55.6184 5.72068C55.3659 5.87456 55.1647 6.09355 55.0147 6.37764C54.8648 6.65779 54.7898 6.98528 54.7898 7.36012V12.8881H52.6473Z" fill="white"/>
<path d="M71.6296 13.0656C70.7182 13.0656 69.931 12.8762 69.2681 12.4974C68.6092 12.1147 68.1021 11.5741 67.747 10.8757C67.3919 10.1734 67.2144 9.34679 67.2144 8.39587C67.2144 7.46074 67.3919 6.64003 67.747 5.93375C68.1061 5.22352 68.6072 4.67112 69.2504 4.27655C69.8935 3.87804 70.6491 3.67878 71.5172 3.67878C72.0774 3.67878 72.6062 3.76953 73.1033 3.95103C73.6044 4.12859 74.0464 4.40479 74.4291 4.77963C74.8158 5.15447 75.1196 5.6319 75.3405 6.21192C75.5615 6.788 75.672 7.47455 75.672 8.27158V8.92854H68.2205V7.48441H73.6182C73.6143 7.07406 73.5255 6.70908 73.3519 6.38948C73.1783 6.06593 72.9356 5.81143 72.6239 5.62598C72.3162 5.44054 71.9571 5.34781 71.5468 5.34781C71.1088 5.34781 70.7241 5.45435 70.3926 5.66741C70.0612 5.87654 69.8027 6.15274 69.6173 6.49601C69.4358 6.83534 69.3431 7.20821 69.3391 7.61462V8.87527C69.3391 9.404 69.4358 9.85776 69.6291 10.2365C69.8225 10.6114 70.0928 10.8994 70.44 11.1007C70.7872 11.2979 71.1936 11.3966 71.6592 11.3966C71.9709 11.3966 72.253 11.3532 72.5056 11.2664C72.7581 11.1756 72.9771 11.0434 73.1625 10.8698C73.348 10.6962 73.488 10.4812 73.5827 10.2247L75.5832 10.4496C75.4569 10.9783 75.2163 11.44 74.8612 11.8346C74.51 12.2252 74.0602 12.529 73.5117 12.746C72.9633 12.9591 72.3359 13.0656 71.6296 13.0656Z" fill="white"/>
<path d="M77.4846 12.8881V3.79715H79.562V5.3123H79.6567C79.8224 4.78752 80.1065 4.38309 80.5089 4.099C80.9153 3.81096 81.379 3.66694 81.8998 3.66694C82.0182 3.66694 82.1503 3.67286 82.2963 3.6847C82.4463 3.69259 82.5706 3.7064 82.6692 3.72613V5.69701C82.5785 5.66544 82.4344 5.63782 82.2372 5.61415C82.0438 5.58653 81.8564 5.57272 81.6749 5.57272C81.2843 5.57272 80.9331 5.65755 80.6214 5.82722C80.3136 5.99293 80.071 6.22376 79.8934 6.51969C79.7159 6.81562 79.6271 7.15692 79.6271 7.5436V12.8881H77.4846Z" fill="white"/>
<path d="M98.6967 4.85657H96.4831C96.42 4.49357 96.3036 4.17199 96.1339 3.89185C95.9643 3.60775 95.7532 3.36707 95.5006 3.16978C95.2481 2.9725 94.9601 2.82453 94.6365 2.72589C94.3169 2.6233 93.9717 2.57201 93.6008 2.57201C92.9419 2.57201 92.3579 2.73773 91.8489 3.06917C91.3399 3.39666 90.9414 3.87804 90.6533 4.51329C90.3653 5.14461 90.2213 5.91599 90.2213 6.82745C90.2213 7.75469 90.3653 8.53594 90.6533 9.1712C90.9453 9.80252 91.3438 10.2799 91.8489 10.6035C92.3579 10.9231 92.9399 11.0829 93.5949 11.0829C93.9579 11.0829 94.2972 11.0355 94.6129 10.9409C94.9325 10.8422 95.2185 10.6982 95.4711 10.5088C95.7275 10.3194 95.9426 10.0866 96.1162 9.81041C96.2937 9.53421 96.416 9.21855 96.4831 8.86344L98.6967 8.87527C98.6138 9.45135 98.4343 9.99191 98.1581 10.497C97.8858 11.002 97.5287 11.4479 97.0868 11.8346C96.6449 12.2173 96.128 12.5172 95.5362 12.7342C94.9443 12.9472 94.2873 13.0538 93.5653 13.0538C92.4999 13.0538 91.549 12.8072 90.7125 12.314C89.876 11.8207 89.2171 11.1085 88.7357 10.1774C88.2544 9.24617 88.0137 8.12954 88.0137 6.82745C88.0137 5.52142 88.2563 4.40479 88.7416 3.47755C89.227 2.54636 89.8879 1.83416 90.7244 1.34095C91.5609 0.847733 92.5078 0.601126 93.5653 0.601126C94.24 0.601126 94.8674 0.695823 95.4474 0.885217C96.0274 1.07461 96.5443 1.35278 96.998 1.71973C97.4518 2.08274 97.8247 2.5286 98.1166 3.05733C98.4126 3.58211 98.6059 4.18186 98.6967 4.85657Z" fill="white"/>
<path d="M104.578 13.0656C103.69 13.0656 102.921 12.8703 102.27 12.4797C101.619 12.0891 101.114 11.5426 100.755 10.8402C100.4 10.1379 100.222 9.31719 100.222 8.37812C100.222 7.43904 100.4 6.61636 100.755 5.91008C101.114 5.20379 101.619 4.65534 102.27 4.26472C102.921 3.87409 103.69 3.67878 104.578 3.67878C105.466 3.67878 106.235 3.87409 106.886 4.26472C107.538 4.65534 108.041 5.20379 108.396 5.91008C108.755 6.61636 108.934 7.43904 108.934 8.37812C108.934 9.31719 108.755 10.1379 108.396 10.8402C108.041 11.5426 107.538 12.0891 106.886 12.4797C106.235 12.8703 105.466 13.0656 104.578 13.0656ZM104.59 11.3492C105.071 11.3492 105.474 11.2171 105.797 10.9527C106.121 10.6844 106.362 10.3253 106.52 9.87551C106.681 9.4257 106.762 8.9246 106.762 8.3722C106.762 7.81585 106.681 7.31277 106.52 6.86296C106.362 6.40921 106.121 6.04818 105.797 5.77987C105.474 5.51156 105.071 5.3774 104.59 5.3774C104.097 5.3774 103.687 5.51156 103.359 5.77987C103.035 6.04818 102.793 6.40921 102.631 6.86296C102.473 7.31277 102.394 7.81585 102.394 8.3722C102.394 8.9246 102.473 9.4257 102.631 9.87551C102.793 10.3253 103.035 10.6844 103.359 10.9527C103.687 11.2171 104.097 11.3492 104.59 11.3492Z" fill="white"/>
<path d="M110.753 12.8881V3.79715H112.801V5.34189H112.907C113.097 4.82106 113.41 4.41465 113.848 4.12267C114.286 3.82674 114.809 3.67878 115.417 3.67878C116.032 3.67878 116.551 3.82872 116.973 4.12859C117.399 4.42452 117.699 4.82895 117.873 5.34189H117.967C118.169 4.83684 118.508 4.43438 118.985 4.13451C119.467 3.83069 120.037 3.67878 120.696 3.67878C121.532 3.67878 122.215 3.94314 122.744 4.47186C123.273 5.00059 123.537 5.77198 123.537 6.78602V12.8881H121.388V7.11746C121.388 6.55323 121.238 6.1409 120.939 5.88048C120.639 5.61612 120.272 5.48394 119.838 5.48394C119.321 5.48394 118.916 5.64571 118.624 5.96926C118.336 6.28886 118.192 6.70514 118.192 7.21808V12.8881H116.091V7.02868C116.091 6.55914 115.949 6.1843 115.665 5.90416C115.385 5.62401 115.018 5.48394 114.564 5.48394C114.257 5.48394 113.976 5.56285 113.724 5.72068C113.471 5.87456 113.27 6.09355 113.12 6.37764C112.97 6.65779 112.895 6.98528 112.895 7.36012V12.8881H110.753Z" fill="white"/>
<path d="M125.71 16.2971V3.79715H127.817V5.30046H127.942C128.052 5.0795 128.208 4.84473 128.409 4.59615C128.611 4.34363 128.883 4.12859 129.226 3.95103C129.569 3.76953 130.007 3.67878 130.54 3.67878C131.242 3.67878 131.876 3.85831 132.44 4.21737C133.008 4.57248 133.458 5.09923 133.789 5.79762C134.125 6.49207 134.292 7.34434 134.292 8.35444C134.292 9.35271 134.129 10.201 133.801 10.8994C133.474 11.5978 133.028 12.1305 132.464 12.4974C131.899 12.8644 131.26 13.0479 130.546 13.0479C130.025 13.0479 129.593 12.9611 129.25 12.7874C128.906 12.6138 128.63 12.4047 128.421 12.1601C128.216 11.9115 128.056 11.6767 127.942 11.4558H127.853V16.2971H125.71ZM127.812 8.3426C127.812 8.93051 127.894 9.44543 128.06 9.88735C128.23 10.3293 128.472 10.6745 128.788 10.9231C129.108 11.1677 129.494 11.29 129.948 11.29C130.422 11.29 130.818 11.1638 131.138 10.9113C131.457 10.6548 131.698 10.3056 131.86 9.86367C132.026 9.41781 132.108 8.91079 132.108 8.3426C132.108 7.77837 132.028 7.27726 131.866 6.83929C131.704 6.40132 131.463 6.05804 131.144 5.80946C130.824 5.56088 130.426 5.43659 129.948 5.43659C129.49 5.43659 129.102 5.55693 128.782 5.79762C128.463 6.03831 128.22 6.37567 128.054 6.8097C127.892 7.24372 127.812 7.75469 127.812 8.3426Z" fill="white"/>
<path d="M138.27 0.766846V12.8881H136.127V0.766846H138.27Z" fill="white"/>
<path d="M143.089 13.0715C142.513 13.0715 141.994 12.9689 141.532 12.7638C141.075 12.5546 140.712 12.2469 140.443 11.8405C140.179 11.4341 140.047 10.933 140.047 10.3372C140.047 9.82422 140.141 9.40005 140.331 9.06467C140.52 8.72928 140.779 8.46097 141.106 8.25974C141.434 8.05851 141.803 7.9066 142.213 7.80401C142.627 7.69748 143.055 7.62054 143.497 7.57319C144.03 7.51795 144.462 7.46863 144.793 7.42523C145.125 7.37788 145.366 7.30686 145.515 7.21216C145.669 7.11352 145.746 6.96161 145.746 6.75643V6.72092C145.746 6.27505 145.614 5.9298 145.35 5.68517C145.085 5.44054 144.705 5.31822 144.207 5.31822C143.683 5.31822 143.266 5.43264 142.959 5.6615C142.655 5.89035 142.45 6.16063 142.343 6.47234L140.343 6.18825C140.5 5.63585 140.761 5.1742 141.124 4.8033C141.487 4.42846 141.931 4.14832 142.456 3.96287C142.98 3.77347 143.56 3.67878 144.196 3.67878C144.634 3.67878 145.07 3.73007 145.504 3.83266C145.938 3.93525 146.334 4.10491 146.693 4.34166C147.052 4.57445 147.34 4.89208 147.557 5.29455C147.778 5.69701 147.889 6.20008 147.889 6.80378V12.8881H145.829V11.6392H145.758C145.628 11.8918 145.444 12.1285 145.208 12.3495C144.975 12.5665 144.681 12.7421 144.326 12.8762C143.975 13.0064 143.562 13.0715 143.089 13.0715ZM143.645 11.4972C144.075 11.4972 144.448 11.4124 144.764 11.2427C145.079 11.0691 145.322 10.8402 145.492 10.5561C145.665 10.2721 145.752 9.96232 145.752 9.62693V8.55567C145.685 8.61091 145.571 8.66221 145.409 8.70955C145.251 8.7569 145.074 8.79833 144.876 8.83385C144.679 8.86936 144.484 8.90092 144.29 8.92854C144.097 8.95616 143.929 8.97984 143.787 8.99956C143.468 9.04297 143.182 9.11399 142.929 9.21263C142.676 9.31128 142.477 9.44938 142.331 9.62693C142.185 9.80054 142.112 10.0254 142.112 10.3016C142.112 10.6962 142.256 10.9941 142.544 11.1953C142.832 11.3966 143.199 11.4972 143.645 11.4972Z" fill="white"/>
<path d="M150.043 12.8881V3.79715H152.186V12.8881H150.043ZM151.12 2.5069C150.777 2.5069 150.483 2.39445 150.238 2.16954C149.998 1.94069 149.877 1.66647 149.877 1.34686C149.877 1.02332 150 0.74909 150.244 0.524184C150.489 0.295334 150.781 0.180908 151.12 0.180908C151.46 0.180908 151.75 0.295334 151.99 0.524184C152.235 0.74909 152.357 1.02332 152.357 1.34686C152.357 1.66647 152.235 1.94069 151.99 2.16954C151.75 2.39445 151.46 2.5069 151.12 2.5069Z" fill="white"/>
<path d="M156.531 7.56135V12.8881H154.389V3.79715H156.437V5.34189H156.543C156.752 4.8329 157.086 4.42846 157.543 4.12859C158.005 3.82872 158.575 3.67878 159.254 3.67878C159.881 3.67878 160.428 3.81293 160.893 4.08124C161.363 4.34955 161.726 4.7382 161.982 5.2472C162.243 5.75619 162.371 6.3737 162.367 7.09971V12.8881H160.225V7.43115C160.225 6.82351 160.067 6.34805 159.751 6.00477C159.439 5.6615 159.007 5.48986 158.455 5.48986C158.08 5.48986 157.747 5.57272 157.455 5.73844C157.167 5.90021 156.94 6.13498 156.774 6.44275C156.612 6.75051 156.531 7.12338 156.531 7.56135Z" fill="white"/>
<path d="M169.085 3.79715V5.45435H163.859V3.79715H169.085ZM165.149 1.61912H167.291V10.1537C167.291 10.4417 167.335 10.6627 167.422 10.8166C167.512 10.9665 167.631 11.0691 167.777 11.1243C167.923 11.1796 168.084 11.2072 168.262 11.2072C168.396 11.2072 168.518 11.1973 168.629 11.1776C168.743 11.1579 168.83 11.1401 168.889 11.1243L169.25 12.7993C169.136 12.8387 168.972 12.8821 168.759 12.9295C168.55 12.9768 168.294 13.0045 167.99 13.0123C167.453 13.0281 166.97 12.9472 166.54 12.7697C166.11 12.5882 165.768 12.308 165.516 11.9293C165.267 11.5505 165.145 11.077 165.149 10.5088V1.61912Z" fill="white"/>
<path d="M177.931 6.20008L175.978 6.41315C175.923 6.21587 175.826 6.03042 175.688 5.85681C175.554 5.6832 175.373 5.54312 175.144 5.43659C174.915 5.33006 174.635 5.27679 174.303 5.27679C173.857 5.27679 173.483 5.37346 173.179 5.5668C172.879 5.76014 172.731 6.01069 172.735 6.31846C172.731 6.58282 172.828 6.79786 173.025 6.96358C173.226 7.1293 173.558 7.26543 174.019 7.37196L175.57 7.7034C176.43 7.88885 177.069 8.1828 177.488 8.58527C177.91 8.98773 178.123 9.51448 178.127 10.1655C178.123 10.7376 177.955 11.2427 177.624 11.6807C177.296 12.1147 176.84 12.454 176.256 12.6987C175.672 12.9433 175.002 13.0656 174.244 13.0656C173.131 13.0656 172.236 12.8328 171.557 12.3672C170.878 11.8977 170.474 11.2447 170.344 10.4082L172.433 10.207C172.528 10.6173 172.729 10.927 173.037 11.1362C173.344 11.3453 173.745 11.4498 174.238 11.4498C174.747 11.4498 175.156 11.3453 175.463 11.1362C175.775 10.927 175.931 10.6686 175.931 10.3608C175.931 10.1004 175.83 9.88538 175.629 9.71571C175.432 9.54604 175.124 9.41584 174.706 9.32508L173.155 8.99956C172.283 8.81806 171.638 8.51227 171.22 8.08219C170.802 7.64816 170.594 7.09971 170.598 6.43683C170.594 5.87654 170.746 5.39121 171.054 4.98086C171.366 4.56656 171.798 4.24696 172.35 4.02205C172.907 3.7932 173.548 3.67878 174.274 3.67878C175.339 3.67878 176.178 3.90566 176.789 4.35941C177.405 4.81317 177.785 5.42673 177.931 6.20008Z" fill="white"/>
<path d="M1.46561 21.9802V28.4449H0.490234V21.9802H1.46561Z" fill="#CAE99A"/>
<path d="M9.21498 21.9802V28.4449H8.31852L5.03253 23.7037H4.97256V28.4449H3.99718V21.9802H4.89996L8.1891 26.7277H8.24907V21.9802H9.21498Z" fill="#CAE99A"/>
<path d="M13.8417 28.4449H11.7489V21.9802H13.908C14.5414 21.9802 15.0854 22.1096 15.54 22.3685C15.9945 22.6252 16.3428 22.9945 16.5848 23.4764C16.8289 23.9562 16.9509 24.5318 16.9509 25.2031C16.9509 25.8765 16.8278 26.4552 16.5816 26.9392C16.3375 27.4232 15.984 27.7957 15.521 28.0566C15.0581 28.3155 14.4983 28.4449 13.8417 28.4449ZM12.7243 27.5926H13.7881C14.2805 27.5926 14.6898 27.5 15.016 27.3148C15.3421 27.1275 15.5862 26.8571 15.7483 26.5036C15.9103 26.1479 15.9913 25.7144 15.9913 25.2031C15.9913 24.6959 15.9103 24.2656 15.7483 23.912C15.5884 23.5585 15.3495 23.2902 15.0317 23.1071C14.714 22.924 14.3194 22.8325 13.848 22.8325H12.7243V27.5926Z" fill="#CAE99A"/>
<path d="M20.2503 21.9802V28.4449H19.275V21.9802H20.2503Z" fill="#CAE99A"/>
<path d="M23.328 28.4449H22.2926L24.619 21.9802H25.7459L28.0723 28.4449H27.037L25.2093 23.1545H25.1588L23.328 28.4449ZM23.5016 25.9133H26.8602V26.734H23.5016V25.9133Z" fill="#CAE99A"/>
<path d="M35.3348 21.9802V28.4449H34.4383L31.1523 23.7037H31.0924V28.4449H30.117V21.9802H31.0198L34.3089 26.7277H34.3689V21.9802H35.3348Z" fill="#CAE99A"/>
<path d="M46.7016 24.0825H45.7167C45.6788 23.8721 45.6083 23.6869 45.5052 23.5269C45.4021 23.367 45.2759 23.2313 45.1264 23.1197C44.977 23.0082 44.8097 22.924 44.6246 22.8672C44.4415 22.8104 44.2468 22.782 44.0406 22.782C43.6681 22.782 43.3346 22.8756 43.04 23.0629C42.7474 23.2502 42.516 23.5248 42.3455 23.8868C42.1772 24.2487 42.093 24.6907 42.093 25.2126C42.093 25.7386 42.1772 26.1827 42.3455 26.5446C42.516 26.9066 42.7485 27.1801 43.0431 27.3653C43.3377 27.5505 43.6692 27.6431 44.0374 27.6431C44.2416 27.6431 44.4352 27.6158 44.6182 27.561C44.8034 27.5042 44.9707 27.4211 45.1201 27.3117C45.2695 27.2022 45.3958 27.0686 45.4989 26.9108C45.6041 26.7509 45.6767 26.5678 45.7167 26.3615L46.7016 26.3647C46.649 26.6825 46.5469 26.975 46.3954 27.2422C46.246 27.5074 46.0534 27.7368 45.8177 27.9304C45.5841 28.1219 45.3169 28.2702 45.016 28.3754C44.715 28.4807 44.3868 28.5333 44.0311 28.5333C43.4714 28.5333 42.9726 28.4007 42.5349 28.1355C42.0972 27.8683 41.7521 27.4863 41.4996 26.9897C41.2491 26.4931 41.1239 25.9007 41.1239 25.2126C41.1239 24.5223 41.2502 23.9299 41.5027 23.4354C41.7552 22.9388 42.1004 22.5579 42.5381 22.2927C42.9758 22.0255 43.4735 21.8918 44.0311 21.8918C44.3741 21.8918 44.694 21.9413 44.9907 22.0402C45.2895 22.137 45.5578 22.2801 45.7956 22.4695C46.0334 22.6568 46.2302 22.8862 46.3859 23.1576C46.5416 23.427 46.6469 23.7353 46.7016 24.0825Z" fill="#CAE99A"/>
<path d="M54.5954 25.2126C54.5954 25.9028 54.4691 26.4962 54.2166 26.9929C53.964 27.4874 53.6179 27.8683 53.1781 28.1355C52.7403 28.4007 52.2427 28.5333 51.685 28.5333C51.1252 28.5333 50.6255 28.4007 50.1856 28.1355C49.7479 27.8683 49.4028 27.4863 49.1503 26.9897C48.8978 26.4931 48.7715 25.9007 48.7715 25.2126C48.7715 24.5223 48.8978 23.9299 49.1503 23.4354C49.4028 22.9388 49.7479 22.5579 50.1856 22.2927C50.6255 22.0255 51.1252 21.8918 51.685 21.8918C52.2427 21.8918 52.7403 22.0255 53.1781 22.2927C53.6179 22.5579 53.964 22.9388 54.2166 23.4354C54.4691 23.9299 54.5954 24.5223 54.5954 25.2126ZM53.6294 25.2126C53.6294 24.6865 53.5442 24.2435 53.3738 23.8836C53.2054 23.5217 52.9739 23.2481 52.6793 23.0629C52.3868 22.8756 52.0554 22.782 51.685 22.782C51.3125 22.782 50.98 22.8756 50.6875 23.0629C50.395 23.2481 50.1635 23.5217 49.9931 23.8836C49.8247 24.2435 49.7406 24.6865 49.7406 25.2126C49.7406 25.7386 49.8247 26.1827 49.9931 26.5446C50.1635 26.9045 50.395 27.178 50.6875 27.3653C50.98 27.5505 51.3125 27.6431 51.685 27.6431C52.0554 27.6431 52.3868 27.5505 52.6793 27.3653C52.9739 27.178 53.2054 26.9045 53.3738 26.5446C53.5442 26.1827 53.6294 25.7386 53.6294 25.2126Z" fill="#CAE99A"/>
<path d="M62.1403 21.9802V28.4449H61.2439L57.9579 23.7037H57.8979V28.4449H56.9225V21.9802H57.8253L61.1145 26.7277H61.1744V21.9802H62.1403Z" fill="#CAE99A"/>
<path d="M68.2002 23.6785C68.1665 23.3796 68.0276 23.1482 67.7835 22.984C67.5394 22.8178 67.2321 22.7346 66.8618 22.7346C66.5966 22.7346 66.3672 22.7767 66.1736 22.8609C65.98 22.943 65.8296 23.0566 65.7223 23.2018C65.617 23.3449 65.5644 23.508 65.5644 23.6911C65.5644 23.8447 65.6002 23.9773 65.6717 24.0888C65.7454 24.2003 65.8411 24.294 65.959 24.3697C66.0789 24.4434 66.2073 24.5055 66.3441 24.556C66.4809 24.6044 66.6124 24.6444 66.7387 24.6759L67.37 24.8401C67.5762 24.8906 67.7877 24.959 68.0044 25.0453C68.2212 25.1315 68.4222 25.2452 68.6074 25.3862C68.7925 25.5272 68.9419 25.7018 69.0556 25.9102C69.1713 26.1185 69.2292 26.3679 69.2292 26.6583C69.2292 27.0244 69.1345 27.3495 68.9451 27.6336C68.7578 27.9177 68.4853 28.1418 68.1276 28.306C67.7719 28.4701 67.3416 28.5522 66.8365 28.5522C66.3525 28.5522 65.9337 28.4754 65.5802 28.3218C65.2267 28.1682 64.9499 27.9503 64.75 27.6684C64.5501 27.3843 64.4396 27.0476 64.4186 26.6583H65.3971C65.4161 26.8918 65.4918 27.0865 65.6244 27.2422C65.7591 27.3958 65.9306 27.5105 66.1389 27.5863C66.3494 27.6599 66.5798 27.6968 66.8302 27.6968C67.1059 27.6968 67.351 27.6536 67.5657 27.5674C67.7824 27.479 67.9529 27.3569 68.077 27.2012C68.2012 27.0434 68.2633 26.8592 68.2633 26.6488C68.2633 26.4573 68.2086 26.3005 68.0991 26.1785C67.9918 26.0564 67.8456 25.9554 67.6604 25.8754C67.4773 25.7955 67.27 25.725 67.0385 25.6639L66.2747 25.4556C65.757 25.3146 65.3466 25.1073 65.0436 24.8338C64.7427 24.5602 64.5922 24.1982 64.5922 23.7479C64.5922 23.3754 64.6932 23.0503 64.8952 22.7725C65.0973 22.4947 65.3708 22.2791 65.7159 22.1254C66.0611 21.9697 66.4504 21.8918 66.8839 21.8918C67.3216 21.8918 67.7077 21.9687 68.0423 22.1223C68.379 22.2759 68.6442 22.4874 68.8378 22.7567C69.0314 23.024 69.1324 23.3312 69.1408 23.6785H68.2002Z" fill="#CAE99A"/>
<path d="M75.6631 21.9802H76.6416V26.2321C76.6416 26.6846 76.5353 27.0854 76.3228 27.4348C76.1103 27.782 75.8114 28.0556 75.4263 28.2555C75.0412 28.4533 74.5898 28.5522 74.0722 28.5522C73.5566 28.5522 73.1062 28.4533 72.7211 28.2555C72.336 28.0556 72.0372 27.782 71.8247 27.4348C71.6121 27.0854 71.5059 26.6846 71.5059 26.2321V21.9802H72.4812V26.1532C72.4812 26.4457 72.5454 26.7056 72.6738 26.9329C72.8043 27.1602 72.9884 27.339 73.2262 27.4695C73.464 27.5979 73.746 27.662 74.0722 27.662C74.4004 27.662 74.6835 27.5979 74.9213 27.4695C75.1612 27.339 75.3443 27.1602 75.4705 26.9329C75.5989 26.7056 75.6631 26.4457 75.6631 26.1532V21.9802Z" fill="#CAE99A"/>
<path d="M79.1708 21.9802H80.3545L82.4126 27.0055H82.4883L84.5464 21.9802H85.7301V28.4449H84.8021V23.7668H84.7421L82.8356 28.4354H82.0654L80.1588 23.7637H80.0988V28.4449H79.1708V21.9802Z" fill="#CAE99A"/>
<path d="M88.2593 28.4449V21.9802H92.3124V22.8199H89.2347V24.7896H92.1009V25.6261H89.2347V27.6052H92.3503V28.4449H88.2593Z" fill="#CAE99A"/>
<path d="M94.7264 28.4449V21.9802H97.0306C97.5315 21.9802 97.9471 22.0665 98.2775 22.2391C98.61 22.4116 98.8583 22.6505 99.0224 22.9556C99.1866 23.2586 99.2687 23.609 99.2687 24.0067C99.2687 24.4024 99.1855 24.7506 99.0193 25.0516C98.8552 25.3504 98.6068 25.5829 98.2743 25.7492C97.944 25.9154 97.5283 25.9985 97.0275 25.9985H95.2819V25.1589H96.9391C97.2548 25.1589 97.5115 25.1136 97.7093 25.0232C97.9092 24.9327 98.0555 24.8011 98.1481 24.6286C98.2407 24.456 98.287 24.2487 98.287 24.0067C98.287 23.7626 98.2396 23.5511 98.1449 23.3723C98.0523 23.1934 97.9061 23.0566 97.7062 22.9619C97.5083 22.8651 97.2485 22.8167 96.9265 22.8167H95.7017V28.4449H94.7264ZM97.9176 25.5282L99.5149 28.4449H98.4038L96.8381 25.5282H97.9176Z" fill="#CAE99A"/>
<path d="M110.4 24.0825H109.415C109.377 23.8721 109.306 23.6869 109.203 23.5269C109.1 23.367 108.974 23.2313 108.824 23.1197C108.675 23.0082 108.508 22.924 108.322 22.8672C108.139 22.8104 107.945 22.782 107.739 22.782C107.366 22.782 107.033 22.8756 106.738 23.0629C106.445 23.2502 106.214 23.5248 106.043 23.8868C105.875 24.2487 105.791 24.6907 105.791 25.2126C105.791 25.7386 105.875 26.1827 106.043 26.5446C106.214 26.9066 106.446 27.1801 106.741 27.3653C107.036 27.5505 107.367 27.6431 107.735 27.6431C107.939 27.6431 108.133 27.6158 108.316 27.561C108.501 27.5042 108.669 27.4211 108.818 27.3117C108.967 27.2022 109.094 27.0686 109.197 26.9108C109.302 26.7509 109.375 26.5678 109.415 26.3615L110.4 26.3647C110.347 26.6825 110.245 26.975 110.093 27.2422C109.944 27.5074 109.751 27.7368 109.516 27.9304C109.282 28.1219 109.015 28.2702 108.714 28.3754C108.413 28.4807 108.085 28.5333 107.729 28.5333C107.169 28.5333 106.671 28.4007 106.233 28.1355C105.795 27.8683 105.45 27.4863 105.197 26.9897C104.947 26.4931 104.822 25.9007 104.822 25.2126C104.822 24.5223 104.948 23.9299 105.201 23.4354C105.453 22.9388 105.798 22.5579 106.236 22.2927C106.674 22.0255 107.171 21.8918 107.729 21.8918C108.072 21.8918 108.392 21.9413 108.689 22.0402C108.987 22.137 109.256 22.2801 109.494 22.4695C109.731 22.6568 109.928 22.8862 110.084 23.1576C110.24 23.427 110.345 23.7353 110.4 24.0825Z" fill="#CAE99A"/>
<path d="M118.293 25.2126C118.293 25.9028 118.167 26.4962 117.914 26.9929C117.662 27.4874 117.316 27.8683 116.876 28.1355C116.438 28.4007 115.941 28.5333 115.383 28.5333C114.823 28.5333 114.323 28.4007 113.884 28.1355C113.446 27.8683 113.101 27.4863 112.848 26.9897C112.596 26.4931 112.469 25.9007 112.469 25.2126C112.469 24.5223 112.596 23.9299 112.848 23.4354C113.101 22.9388 113.446 22.5579 113.884 22.2927C114.323 22.0255 114.823 21.8918 115.383 21.8918C115.941 21.8918 116.438 22.0255 116.876 22.2927C117.316 22.5579 117.662 22.9388 117.914 23.4354C118.167 23.9299 118.293 24.5223 118.293 25.2126ZM117.327 25.2126C117.327 24.6865 117.242 24.2435 117.072 23.8836C116.903 23.5217 116.672 23.2481 116.377 23.0629C116.085 22.8756 115.753 22.782 115.383 22.782C115.01 22.782 114.678 22.8756 114.385 23.0629C114.093 23.2481 113.861 23.5217 113.691 23.8836C113.523 24.2435 113.438 24.6865 113.438 25.2126C113.438 25.7386 113.523 26.1827 113.691 26.5446C113.861 26.9045 114.093 27.178 114.385 27.3653C114.678 27.5505 115.01 27.6431 115.383 27.6431C115.753 27.6431 116.085 27.5505 116.377 27.3653C116.672 27.178 116.903 26.9045 117.072 26.5446C117.242 26.1827 117.327 25.7386 117.327 25.2126Z" fill="#CAE99A"/>
<path d="M120.62 21.9802H121.804L123.862 27.0055H123.938L125.996 21.9802H127.18V28.4449H126.252V23.7668H126.192L124.285 28.4354H123.515L121.608 23.7637H121.548V28.4449H120.62V21.9802Z" fill="#CAE99A"/>
<path d="M129.709 28.4449V21.9802H132.013C132.516 21.9802 132.933 22.0718 133.263 22.2549C133.594 22.4379 133.841 22.6884 134.005 23.0061C134.169 23.3218 134.251 23.6774 134.251 24.073C134.251 24.4708 134.168 24.8285 134.002 25.1463C133.838 25.4619 133.589 25.7123 133.257 25.8975C132.927 26.0806 132.511 26.1721 132.01 26.1721H130.426V25.3451H131.922C132.24 25.3451 132.497 25.2904 132.695 25.181C132.893 25.0695 133.038 24.9179 133.131 24.7264C133.223 24.5349 133.27 24.3171 133.27 24.073C133.27 23.8289 133.223 23.6122 133.131 23.4228C133.038 23.2334 132.892 23.085 132.692 22.9777C132.494 22.8704 132.233 22.8167 131.909 22.8167H130.684V28.4449H129.709Z" fill="#CAE99A"/>
<path d="M136.506 28.4449V21.9802H137.481V27.6052H140.411V28.4449H136.506Z" fill="#CAE99A"/>
<path d="M143.502 28.4449H142.466L144.793 21.9802H145.92L148.246 28.4449H147.211L145.383 23.1545H145.332L143.502 28.4449ZM143.675 25.9133H147.034V26.734H143.675V25.9133Z" fill="#CAE99A"/>
<path d="M151.266 21.9802V28.4449H150.291V21.9802H151.266Z" fill="#CAE99A"/>
<path d="M159.015 21.9802V28.4449H158.119L154.833 23.7037H154.773V28.4449H153.798V21.9802H154.7L157.989 26.7277H158.049V21.9802H159.015Z" fill="#CAE99A"/>
<path d="M161.23 22.8199V21.9802H166.234V22.8199H164.217V28.4449H163.244V22.8199H161.23Z" fill="#CAE99A"/>
<path d="M171.976 23.6785C171.943 23.3796 171.804 23.1482 171.56 22.984C171.315 22.8178 171.008 22.7346 170.638 22.7346C170.373 22.7346 170.143 22.7767 169.95 22.8609C169.756 22.943 169.606 23.0566 169.498 23.2018C169.393 23.3449 169.34 23.508 169.34 23.6911C169.34 23.8447 169.376 23.9773 169.448 24.0888C169.521 24.2003 169.617 24.294 169.735 24.3697C169.855 24.4434 169.983 24.5055 170.12 24.556C170.257 24.6044 170.388 24.6444 170.515 24.6759L171.146 24.8401C171.352 24.8906 171.564 24.959 171.781 25.0453C171.997 25.1315 172.198 25.2452 172.383 25.3862C172.569 25.5272 172.718 25.7018 172.832 25.9102C172.947 26.1185 173.005 26.3679 173.005 26.6583C173.005 27.0244 172.911 27.3495 172.721 27.6336C172.534 27.9177 172.261 28.1418 171.904 28.306C171.548 28.4701 171.118 28.5522 170.613 28.5522C170.129 28.5522 169.71 28.4754 169.356 28.3218C169.003 28.1682 168.726 27.9503 168.526 27.6684C168.326 27.3843 168.216 27.0476 168.195 26.6583H169.173C169.192 26.8918 169.268 27.0865 169.4 27.2422C169.535 27.3958 169.707 27.5105 169.915 27.5863C170.125 27.6599 170.356 27.6968 170.606 27.6968C170.882 27.6968 171.127 27.6536 171.342 27.5674C171.559 27.479 171.729 27.3569 171.853 27.2012C171.977 27.0434 172.039 26.8592 172.039 26.6488C172.039 26.4573 171.985 26.3005 171.875 26.1785C171.768 26.0564 171.622 25.9554 171.436 25.8754C171.253 25.7955 171.046 25.725 170.815 25.6639L170.051 25.4556C169.533 25.3146 169.123 25.1073 168.82 24.8338C168.519 24.5602 168.368 24.1982 168.368 23.7479C168.368 23.3754 168.469 23.0503 168.671 22.7725C168.873 22.4947 169.147 22.2791 169.492 22.1254C169.837 21.9697 170.226 21.8918 170.66 21.8918C171.098 21.8918 171.484 21.9687 171.818 22.1223C172.155 22.2759 172.42 22.4874 172.614 22.7567C172.807 23.024 172.908 23.3312 172.917 23.6785H171.976Z" fill="#CAE99A"/>
<path d="M178.745 28.4449V21.9802H182.754V22.8199H179.721V24.7896H182.467V25.6261H179.721V28.4449H178.745Z" fill="#CAE99A"/>
<path d="M190.68 25.2126C190.68 25.9028 190.554 26.4962 190.302 26.9929C190.049 27.4874 189.703 27.8683 189.263 28.1355C188.825 28.4007 188.328 28.5333 187.77 28.5333C187.21 28.5333 186.711 28.4007 186.271 28.1355C185.833 27.8683 185.488 27.4863 185.235 26.9897C184.983 26.4931 184.857 25.9007 184.857 25.2126C184.857 24.5223 184.983 23.9299 185.235 23.4354C185.488 22.9388 185.833 22.5579 186.271 22.2927C186.711 22.0255 187.21 21.8918 187.77 21.8918C188.328 21.8918 188.825 22.0255 189.263 22.2927C189.703 22.5579 190.049 22.9388 190.302 23.4354C190.554 23.9299 190.68 24.5223 190.68 25.2126ZM189.715 25.2126C189.715 24.6865 189.629 24.2435 189.459 23.8836C189.29 23.5217 189.059 23.2481 188.764 23.0629C188.472 22.8756 188.14 22.782 187.77 22.782C187.398 22.782 187.065 22.8756 186.773 23.0629C186.48 23.2481 186.249 23.5217 186.078 23.8836C185.91 24.2435 185.826 24.6865 185.826 25.2126C185.826 25.7386 185.91 26.1827 186.078 26.5446C186.249 26.9045 186.48 27.178 186.773 27.3653C187.065 27.5505 187.398 27.6431 187.77 27.6431C188.14 27.6431 188.472 27.5505 188.764 27.3653C189.059 27.178 189.29 26.9045 189.459 26.5446C189.629 26.1827 189.715 25.7386 189.715 25.2126Z" fill="#CAE99A"/>
<path d="M193.008 28.4449V21.9802H195.312C195.813 21.9802 196.228 22.0665 196.559 22.2391C196.891 22.4116 197.14 22.6505 197.304 22.9556C197.468 23.2586 197.55 23.609 197.55 24.0067C197.55 24.4024 197.467 24.7506 197.301 25.0516C197.136 25.3504 196.888 25.5829 196.556 25.7492C196.225 25.9154 195.81 25.9985 195.309 25.9985H193.563V25.1589H195.22C195.536 25.1589 195.793 25.1136 195.991 25.0232C196.191 24.9327 196.337 24.8011 196.429 24.6286C196.522 24.456 196.568 24.2487 196.568 24.0067C196.568 23.7626 196.521 23.5511 196.426 23.3723C196.334 23.1934 196.187 23.0566 195.987 22.9619C195.79 22.8651 195.53 22.8167 195.208 22.8167H193.983V28.4449H193.008ZM196.199 25.5282L197.796 28.4449H196.685L195.119 25.5282H196.199Z" fill="#CAE99A"/>
<path d="M204.005 21.9802H204.984V26.2321C204.984 26.6846 204.877 27.0854 204.665 27.4348C204.452 27.782 204.153 28.0556 203.768 28.2555C203.383 28.4533 202.932 28.5522 202.414 28.5522C201.899 28.5522 201.448 28.4533 201.063 28.2555C200.678 28.0556 200.379 27.782 200.167 27.4348C199.954 27.0854 199.848 26.6846 199.848 26.2321V21.9802H200.823V26.1532C200.823 26.4457 200.887 26.7056 201.016 26.9329C201.146 27.1602 201.33 27.339 201.568 27.4695C201.806 27.5979 202.088 27.662 202.414 27.662C202.742 27.662 203.026 27.5979 203.263 27.4695C203.503 27.339 203.686 27.1602 203.813 26.9329C203.941 26.7056 204.005 26.4457 204.005 26.1532V21.9802Z" fill="#CAE99A"/>
<path d="M207.513 21.9802H208.697L210.755 27.0055H210.83L212.888 21.9802H214.072V28.4449H213.144V23.7668H213.084L211.178 28.4354H210.407L208.501 23.7637H208.441V28.4449H207.513V21.9802Z" fill="#CAE99A"/>
</svg>
